<?xml version="1.0" encoding="UTF-8"?>
<svg xmlns="http://www.w3.org/2000/svg" xmlns:xlink="http://www.w3.org/1999/xlink" width="120px" height="60px" viewBox="0 0 120 60" version="1.1">
<defs>
<clipPath id="clip1">
  <path d="M 25 16 L 30 16 L 30 17 L 25 17 Z M 25 16 "/>
</clipPath>
<clipPath id="clip2">
  <path d="M 17.105469 16.371094 L 17.105469 24.867188 L 13.042969 24.867188 L 13.042969 29.113281 L 9.640625 29.113281 L 9.601562 29.480469 C 9.390625 31.796875 9.792969 33.929688 10.722656 35.753906 L 11.035156 36.316406 C 11.21875 36.648438 11.441406 36.964844 11.667969 37.273438 C 11.898438 37.578125 11.980469 37.75 12.125 37.953125 C 14.578125 40.710938 18.238281 42.039062 22.460938 42.039062 C 31.8125 42.039062 39.75 37.894531 43.261719 28.585938 C 45.753906 28.84375 48.144531 28.203125 49.234375 26.078125 C 47.5 25.074219 45.269531 25.398438 43.984375 26.042969 L 47.386719 16.371094 L 34.09375 24.867188 L 29.847656 24.867188 L 29.847656 16.371094 Z M 17.105469 16.371094 "/>
</clipPath>
<clipPath id="clip3">
  <path d="M 25 16 L 30 16 L 30 21 L 25 21 Z M 25 16 "/>
</clipPath>
<clipPath id="clip4">
  <path d="M 17.105469 16.371094 L 17.105469 24.867188 L 13.042969 24.867188 L 13.042969 29.113281 L 9.640625 29.113281 L 9.601562 29.480469 C 9.390625 31.796875 9.792969 33.929688 10.722656 35.753906 L 11.035156 36.316406 C 11.21875 36.648438 11.441406 36.964844 11.667969 37.273438 C 11.898438 37.578125 11.980469 37.75 12.125 37.953125 C 14.578125 40.710938 18.238281 42.039062 22.460938 42.039062 C 31.8125 42.039062 39.75 37.894531 43.261719 28.585938 C 45.753906 28.84375 48.144531 28.203125 49.234375 26.078125 C 47.5 25.074219 45.269531 25.398438 43.984375 26.042969 L 47.386719 16.371094 L 34.09375 24.867188 L 29.847656 24.867188 L 29.847656 16.371094 Z M 17.105469 16.371094 "/>
</clipPath>
<clipPath id="clip5">
  <path d="M 26 17 L 30 17 L 30 21 L 26 21 Z M 26 17 "/>
</clipPath>
<clipPath id="clip6">
  <path d="M 17.105469 16.371094 L 17.105469 24.867188 L 13.042969 24.867188 L 13.042969 29.113281 L 9.640625 29.113281 L 9.601562 29.480469 C 9.390625 31.796875 9.792969 33.929688 10.722656 35.753906 L 11.035156 36.316406 C 11.21875 36.648438 11.441406 36.964844 11.667969 37.273438 C 11.898438 37.578125 11.980469 37.75 12.125 37.953125 C 14.578125 40.710938 18.238281 42.039062 22.460938 42.039062 C 31.8125 42.039062 39.75 37.894531 43.261719 28.585938 C 45.753906 28.84375 48.144531 28.203125 49.234375 26.078125 C 47.5 25.074219 45.269531 25.398438 43.984375 26.042969 L 47.386719 16.371094 L 34.09375 24.867188 L 29.847656 24.867188 L 29.847656 16.371094 Z M 17.105469 16.371094 "/>
</clipPath>
<clipPath id="clip7">
  <path d="M 26 16 L 30 16 L 30 21 L 26 21 Z M 26 16 "/>
</clipPath>
<clipPath id="clip8">
  <path d="M 17.105469 16.371094 L 17.105469 24.867188 L 13.042969 24.867188 L 13.042969 29.113281 L 9.640625 29.113281 L 9.601562 29.480469 C 9.390625 31.796875 9.792969 33.929688 10.722656 35.753906 L 11.035156 36.316406 C 11.21875 36.648438 11.441406 36.964844 11.667969 37.273438 C 11.898438 37.578125 11.980469 37.75 12.125 37.953125 C 14.578125 40.710938 18.238281 42.039062 22.460938 42.039062 C 31.8125 42.039062 39.75 37.894531 43.261719 28.585938 C 45.753906 28.84375 48.144531 28.203125 49.234375 26.078125 C 47.5 25.074219 45.269531 25.398438 43.984375 26.042969 L 47.386719 16.371094 L 34.09375 24.867188 L 29.847656 24.867188 L 29.847656 16.371094 Z M 17.105469 16.371094 "/>
</clipPath>
<clipPath id="clip9">
  <path d="M 30 16 L 34 16 L 34 21 L 30 21 Z M 30 16 "/>
</clipPath>
<clipPath id="clip10">
  <path d="M 17.105469 16.371094 L 17.105469 24.867188 L 13.042969 24.867188 L 13.042969 29.113281 L 9.640625 29.113281 L 9.601562 29.480469 C 9.390625 31.796875 9.792969 33.929688 10.722656 35.753906 L 11.035156 36.316406 C 11.21875 36.648438 11.441406 36.964844 11.667969 37.273438 C 11.898438 37.578125 11.980469 37.75 12.125 37.953125 C 14.578125 40.710938 18.238281 42.039062 22.460938 42.039062 C 31.8125 42.039062 39.75 37.894531 43.261719 28.585938 C 45.753906 28.84375 48.144531 28.203125 49.234375 26.078125 C 47.5 25.074219 45.269531 25.398438 43.984375 26.042969 L 47.386719 16.371094 L 34.09375 24.867188 L 29.847656 24.867188 L 29.847656 16.371094 Z M 17.105469 16.371094 "/>
</clipPath>
<clipPath id="clip11">
  <path d="M 30 16 L 34 16 L 34 17 L 30 17 Z M 30 16 "/>
</clipPath>
<clipPath id="clip12">
  <path d="M 17.105469 16.371094 L 17.105469 24.867188 L 13.042969 24.867188 L 13.042969 29.113281 L 9.640625 29.113281 L 9.601562 29.480469 C 9.390625 31.796875 9.792969 33.929688 10.722656 35.753906 L 11.035156 36.316406 C 11.21875 36.648438 11.441406 36.964844 11.667969 37.273438 C 11.898438 37.578125 11.980469 37.75 12.125 37.953125 C 14.578125 40.710938 18.238281 42.039062 22.460938 42.039062 C 31.8125 42.039062 39.75 37.894531 43.261719 28.585938 C 45.753906 28.84375 48.144531 28.203125 49.234375 26.078125 C 47.5 25.074219 45.269531 25.398438 43.984375 26.042969 L 47.386719 16.371094 L 34.09375 24.867188 L 29.847656 24.867188 L 29.847656 16.371094 Z M 17.105469 16.371094 "/>
</clipPath>
<clipPath id="clip13">
  <path d="M 30 17 L 34 17 L 34 21 L 30 21 Z M 30 17 "/>
</clipPath>
<clipPath id="clip14">
  <path d="M 17.105469 16.371094 L 17.105469 24.867188 L 13.042969 24.867188 L 13.042969 29.113281 L 9.640625 29.113281 L 9.601562 29.480469 C 9.390625 31.796875 9.792969 33.929688 10.722656 35.753906 L 11.035156 36.316406 C 11.21875 36.648438 11.441406 36.964844 11.667969 37.273438 C 11.898438 37.578125 11.980469 37.75 12.125 37.953125 C 14.578125 40.710938 18.238281 42.039062 22.460938 42.039062 C 31.8125 42.039062 39.75 37.894531 43.261719 28.585938 C 45.753906 28.84375 48.144531 28.203125 49.234375 26.078125 C 47.5 25.074219 45.269531 25.398438 43.984375 26.042969 L 47.386719 16.371094 L 34.09375 24.867188 L 29.847656 24.867188 L 29.847656 16.371094 Z M 17.105469 16.371094 "/>
</clipPath>
<clipPath id="clip15">
  <path d="M 30 16 L 34 16 L 34 21 L 30 21 Z M 30 16 "/>
</clipPath>
<clipPath id="clip16">
  <path d="M 17.105469 16.371094 L 17.105469 24.867188 L 13.042969 24.867188 L 13.042969 29.113281 L 9.640625 29.113281 L 9.601562 29.480469 C 9.390625 31.796875 9.792969 33.929688 10.722656 35.753906 L 11.035156 36.316406 C 11.21875 36.648438 11.441406 36.964844 11.667969 37.273438 C 11.898438 37.578125 11.980469 37.75 12.125 37.953125 C 14.578125 40.710938 18.238281 42.039062 22.460938 42.039062 C 31.8125 42.039062 39.75 37.894531 43.261719 28.585938 C 45.753906 28.84375 48.144531 28.203125 49.234375 26.078125 C 47.5 25.074219 45.269531 25.398438 43.984375 26.042969 L 47.386719 16.371094 L 34.09375 24.867188 L 29.847656 24.867188 L 29.847656 16.371094 Z M 17.105469 16.371094 "/>
</clipPath>
<clipPath id="clip17">
  <path d="M 9 20 L 13 20 L 13 25 L 9 25 Z M 9 20 "/>
</clipPath>
<clipPath id="clip18">
  <path d="M 17.105469 16.371094 L 17.105469 24.867188 L 13.042969 24.867188 L 13.042969 29.113281 L 9.640625 29.113281 L 9.601562 29.480469 C 9.390625 31.796875 9.792969 33.929688 10.722656 35.753906 L 11.035156 36.316406 C 11.21875 36.648438 11.441406 36.964844 11.667969 37.273438 C 11.898438 37.578125 11.980469 37.75 12.125 37.953125 C 14.578125 40.710938 18.238281 42.039062 22.460938 42.039062 C 31.8125 42.039062 39.75 37.894531 43.261719 28.585938 C 45.753906 28.84375 48.144531 28.203125 49.234375 26.078125 C 47.5 25.074219 45.269531 25.398438 43.984375 26.042969 L 47.386719 16.371094 L 34.09375 24.867188 L 29.847656 24.867188 L 29.847656 16.371094 Z M 17.105469 16.371094 "/>
</clipPath>
<clipPath id="clip19">
  <path d="M 9 25 L 13 25 L 13 29 L 9 29 Z M 9 25 "/>
</clipPath>
<clipPath id="clip20">
  <path d="M 17.105469 16.371094 L 17.105469 24.867188 L 13.042969 24.867188 L 13.042969 29.113281 L 9.640625 29.113281 L 9.601562 29.480469 C 9.390625 31.796875 9.792969 33.929688 10.722656 35.753906 L 11.035156 36.316406 C 11.21875 36.648438 11.441406 36.964844 11.667969 37.273438 C 11.898438 37.578125 11.980469 37.75 12.125 37.953125 C 14.578125 40.710938 18.238281 42.039062 22.460938 42.039062 C 31.8125 42.039062 39.75 37.894531 43.261719 28.585938 C 45.753906 28.84375 48.144531 28.203125 49.234375 26.078125 C 47.5 25.074219 45.269531 25.398438 43.984375 26.042969 L 47.386719 16.371094 L 34.09375 24.867188 L 29.847656 24.867188 L 29.847656 16.371094 Z M 17.105469 16.371094 "/>
</clipPath>
<clipPath id="clip21">
  <path d="M 9 21 L 13 21 L 13 25 L 9 25 Z M 9 21 "/>
</clipPath>
<clipPath id="clip22">
  <path d="M 17.105469 16.371094 L 17.105469 24.867188 L 13.042969 24.867188 L 13.042969 29.113281 L 9.640625 29.113281 L 9.601562 29.480469 C 9.390625 31.796875 9.792969 33.929688 10.722656 35.753906 L 11.035156 36.316406 C 11.21875 36.648438 11.441406 36.964844 11.667969 37.273438 C 11.898438 37.578125 11.980469 37.75 12.125 37.953125 C 14.578125 40.710938 18.238281 42.039062 22.460938 42.039062 C 31.8125 42.039062 39.75 37.894531 43.261719 28.585938 C 45.753906 28.84375 48.144531 28.203125 49.234375 26.078125 C 47.5 25.074219 45.269531 25.398438 43.984375 26.042969 L 47.386719 16.371094 L 34.09375 24.867188 L 29.847656 24.867188 L 29.847656 16.371094 Z M 17.105469 16.371094 "/>
</clipPath>
<clipPath id="clip23">
  <path d="M 9 25 L 13 25 L 13 29 L 9 29 Z M 9 25 "/>
</clipPath>
<clipPath id="clip24">
  <path d="M 17.105469 16.371094 L 17.105469 24.867188 L 13.042969 24.867188 L 13.042969 29.113281 L 9.640625 29.113281 L 9.601562 29.480469 C 9.390625 31.796875 9.792969 33.929688 10.722656 35.753906 L 11.035156 36.316406 C 11.21875 36.648438 11.441406 36.964844 11.667969 37.273438 C 11.898438 37.578125 11.980469 37.75 12.125 37.953125 C 14.578125 40.710938 18.238281 42.039062 22.460938 42.039062 C 31.8125 42.039062 39.75 37.894531 43.261719 28.585938 C 45.753906 28.84375 48.144531 28.203125 49.234375 26.078125 C 47.5 25.074219 45.269531 25.398438 43.984375 26.042969 L 47.386719 16.371094 L 34.09375 24.867188 L 29.847656 24.867188 L 29.847656 16.371094 Z M 17.105469 16.371094 "/>
</clipPath>
<clipPath id="clip25">
  <path d="M 13 25 L 17 25 L 17 29 L 13 29 Z M 13 25 "/>
</clipPath>
<clipPath id="clip26">
  <path d="M 17.105469 16.371094 L 17.105469 24.867188 L 13.042969 24.867188 L 13.042969 29.113281 L 9.640625 29.113281 L 9.601562 29.480469 C 9.390625 31.796875 9.792969 33.929688 10.722656 35.753906 L 11.035156 36.316406 C 11.21875 36.648438 11.441406 36.964844 11.667969 37.273438 C 11.898438 37.578125 11.980469 37.75 12.125 37.953125 C 14.578125 40.710938 18.238281 42.039062 22.460938 42.039062 C 31.8125 42.039062 39.75 37.894531 43.261719 28.585938 C 45.753906 28.84375 48.144531 28.203125 49.234375 26.078125 C 47.5 25.074219 45.269531 25.398438 43.984375 26.042969 L 47.386719 16.371094 L 34.09375 24.867188 L 29.847656 24.867188 L 29.847656 16.371094 Z M 17.105469 16.371094 "/>
</clipPath>
<clipPath id="clip27">
  <path d="M 13 20 L 17 20 L 17 25 L 13 25 Z M 13 20 "/>
</clipPath>
<clipPath id="clip28">
  <path d="M 17.105469 16.371094 L 17.105469 24.867188 L 13.042969 24.867188 L 13.042969 29.113281 L 9.640625 29.113281 L 9.601562 29.480469 C 9.390625 31.796875 9.792969 33.929688 10.722656 35.753906 L 11.035156 36.316406 C 11.21875 36.648438 11.441406 36.964844 11.667969 37.273438 C 11.898438 37.578125 11.980469 37.75 12.125 37.953125 C 14.578125 40.710938 18.238281 42.039062 22.460938 42.039062 C 31.8125 42.039062 39.75 37.894531 43.261719 28.585938 C 45.753906 28.84375 48.144531 28.203125 49.234375 26.078125 C 47.5 25.074219 45.269531 25.398438 43.984375 26.042969 L 47.386719 16.371094 L 34.09375 24.867188 L 29.847656 24.867188 L 29.847656 16.371094 Z M 17.105469 16.371094 "/>
</clipPath>
<clipPath id="clip29">
  <path d="M 13 25 L 17 25 L 17 29 L 13 29 Z M 13 25 "/>
</clipPath>
<clipPath id="clip30">
  <path d="M 17.105469 16.371094 L 17.105469 24.867188 L 13.042969 24.867188 L 13.042969 29.113281 L 9.640625 29.113281 L 9.601562 29.480469 C 9.390625 31.796875 9.792969 33.929688 10.722656 35.753906 L 11.035156 36.316406 C 11.21875 36.648438 11.441406 36.964844 11.667969 37.273438 C 11.898438 37.578125 11.980469 37.75 12.125 37.953125 C 14.578125 40.710938 18.238281 42.039062 22.460938 42.039062 C 31.8125 42.039062 39.75 37.894531 43.261719 28.585938 C 45.753906 28.84375 48.144531 28.203125 49.234375 26.078125 C 47.5 25.074219 45.269531 25.398438 43.984375 26.042969 L 47.386719 16.371094 L 34.09375 24.867188 L 29.847656 24.867188 L 29.847656 16.371094 Z M 17.105469 16.371094 "/>
</clipPath>
<clipPath id="clip31">
  <path d="M 13 21 L 17 21 L 17 25 L 13 25 Z M 13 21 "/>
</clipPath>
<clipPath id="clip32">
  <path d="M 17.105469 16.371094 L 17.105469 24.867188 L 13.042969 24.867188 L 13.042969 29.113281 L 9.640625 29.113281 L 9.601562 29.480469 C 9.390625 31.796875 9.792969 33.929688 10.722656 35.753906 L 11.035156 36.316406 C 11.21875 36.648438 11.441406 36.964844 11.667969 37.273438 C 11.898438 37.578125 11.980469 37.75 12.125 37.953125 C 14.578125 40.710938 18.238281 42.039062 22.460938 42.039062 C 31.8125 42.039062 39.75 37.894531 43.261719 28.585938 C 45.753906 28.84375 48.144531 28.203125 49.234375 26.078125 C 47.5 25.074219 45.269531 25.398438 43.984375 26.042969 L 47.386719 16.371094 L 34.09375 24.867188 L 29.847656 24.867188 L 29.847656 16.371094 Z M 17.105469 16.371094 "/>
</clipPath>
<clipPath id="clip33">
  <path d="M 17 20 L 22 20 L 22 25 L 17 25 Z M 17 20 "/>
</clipPath>
<clipPath id="clip34">
  <path d="M 17.105469 16.371094 L 17.105469 24.867188 L 13.042969 24.867188 L 13.042969 29.113281 L 9.640625 29.113281 L 9.601562 29.480469 C 9.390625 31.796875 9.792969 33.929688 10.722656 35.753906 L 11.035156 36.316406 C 11.21875 36.648438 11.441406 36.964844 11.667969 37.273438 C 11.898438 37.578125 11.980469 37.75 12.125 37.953125 C 14.578125 40.710938 18.238281 42.039062 22.460938 42.039062 C 31.8125 42.039062 39.75 37.894531 43.261719 28.585938 C 45.753906 28.84375 48.144531 28.203125 49.234375 26.078125 C 47.5 25.074219 45.269531 25.398438 43.984375 26.042969 L 47.386719 16.371094 L 34.09375 24.867188 L 29.847656 24.867188 L 29.847656 16.371094 Z M 17.105469 16.371094 "/>
</clipPath>
<clipPath id="clip35">
  <path d="M 17 25 L 22 25 L 22 29 L 17 29 Z M 17 25 "/>
</clipPath>
<clipPath id="clip36">
  <path d="M 17.105469 16.371094 L 17.105469 24.867188 L 13.042969 24.867188 L 13.042969 29.113281 L 9.640625 29.113281 L 9.601562 29.480469 C 9.390625 31.796875 9.792969 33.929688 10.722656 35.753906 L 11.035156 36.316406 C 11.21875 36.648438 11.441406 36.964844 11.667969 37.273438 C 11.898438 37.578125 11.980469 37.75 12.125 37.953125 C 14.578125 40.710938 18.238281 42.039062 22.460938 42.039062 C 31.8125 42.039062 39.75 37.894531 43.261719 28.585938 C 45.753906 28.84375 48.144531 28.203125 49.234375 26.078125 C 47.5 25.074219 45.269531 25.398438 43.984375 26.042969 L 47.386719 16.371094 L 34.09375 24.867188 L 29.847656 24.867188 L 29.847656 16.371094 Z M 17.105469 16.371094 "/>
</clipPath>
<clipPath id="clip37">
  <path d="M 17 21 L 21 21 L 21 25 L 17 25 Z M 17 21 "/>
</clipPath>
<clipPath id="clip38">
  <path d="M 17.105469 16.371094 L 17.105469 24.867188 L 13.042969 24.867188 L 13.042969 29.113281 L 9.640625 29.113281 L 9.601562 29.480469 C 9.390625 31.796875 9.792969 33.929688 10.722656 35.753906 L 11.035156 36.316406 C 11.21875 36.648438 11.441406 36.964844 11.667969 37.273438 C 11.898438 37.578125 11.980469 37.75 12.125 37.953125 C 14.578125 40.710938 18.238281 42.039062 22.460938 42.039062 C 31.8125 42.039062 39.75 37.894531 43.261719 28.585938 C 45.753906 28.84375 48.144531 28.203125 49.234375 26.078125 C 47.5 25.074219 45.269531 25.398438 43.984375 26.042969 L 47.386719 16.371094 L 34.09375 24.867188 L 29.847656 24.867188 L 29.847656 16.371094 Z M 17.105469 16.371094 "/>
</clipPath>
<clipPath id="clip39">
  <path d="M 17 25 L 21 25 L 21 29 L 17 29 Z M 17 25 "/>
</clipPath>
<clipPath id="clip40">
  <path d="M 17.105469 16.371094 L 17.105469 24.867188 L 13.042969 24.867188 L 13.042969 29.113281 L 9.640625 29.113281 L 9.601562 29.480469 C 9.390625 31.796875 9.792969 33.929688 10.722656 35.753906 L 11.035156 36.316406 C 11.21875 36.648438 11.441406 36.964844 11.667969 37.273438 C 11.898438 37.578125 11.980469 37.75 12.125 37.953125 C 14.578125 40.710938 18.238281 42.039062 22.460938 42.039062 C 31.8125 42.039062 39.75 37.894531 43.261719 28.585938 C 45.753906 28.84375 48.144531 28.203125 49.234375 26.078125 C 47.5 25.074219 45.269531 25.398438 43.984375 26.042969 L 47.386719 16.371094 L 34.09375 24.867188 L 29.847656 24.867188 L 29.847656 16.371094 Z M 17.105469 16.371094 "/>
</clipPath>
<clipPath id="clip41">
  <path d="M 21 25 L 26 25 L 26 29 L 21 29 Z M 21 25 "/>
</clipPath>
<clipPath id="clip42">
  <path d="M 17.105469 16.371094 L 17.105469 24.867188 L 13.042969 24.867188 L 13.042969 29.113281 L 9.640625 29.113281 L 9.601562 29.480469 C 9.390625 31.796875 9.792969 33.929688 10.722656 35.753906 L 11.035156 36.316406 C 11.21875 36.648438 11.441406 36.964844 11.667969 37.273438 C 11.898438 37.578125 11.980469 37.75 12.125 37.953125 C 14.578125 40.710938 18.238281 42.039062 22.460938 42.039062 C 31.8125 42.039062 39.75 37.894531 43.261719 28.585938 C 45.753906 28.84375 48.144531 28.203125 49.234375 26.078125 C 47.5 25.074219 45.269531 25.398438 43.984375 26.042969 L 47.386719 16.371094 L 34.09375 24.867188 L 29.847656 24.867188 L 29.847656 16.371094 Z M 17.105469 16.371094 "/>
</clipPath>
<clipPath id="clip43">
  <path d="M 21 20 L 26 20 L 26 25 L 21 25 Z M 21 20 "/>
</clipPath>
<clipPath id="clip44">
  <path d="M 17.105469 16.371094 L 17.105469 24.867188 L 13.042969 24.867188 L 13.042969 29.113281 L 9.640625 29.113281 L 9.601562 29.480469 C 9.390625 31.796875 9.792969 33.929688 10.722656 35.753906 L 11.035156 36.316406 C 11.21875 36.648438 11.441406 36.964844 11.667969 37.273438 C 11.898438 37.578125 11.980469 37.75 12.125 37.953125 C 14.578125 40.710938 18.238281 42.039062 22.460938 42.039062 C 31.8125 42.039062 39.75 37.894531 43.261719 28.585938 C 45.753906 28.84375 48.144531 28.203125 49.234375 26.078125 C 47.5 25.074219 45.269531 25.398438 43.984375 26.042969 L 47.386719 16.371094 L 34.09375 24.867188 L 29.847656 24.867188 L 29.847656 16.371094 Z M 17.105469 16.371094 "/>
</clipPath>
<clipPath id="clip45">
  <path d="M 22 25 L 25 25 L 25 29 L 22 29 Z M 22 25 "/>
</clipPath>
<clipPath id="clip46">
  <path d="M 17.105469 16.371094 L 17.105469 24.867188 L 13.042969 24.867188 L 13.042969 29.113281 L 9.640625 29.113281 L 9.601562 29.480469 C 9.390625 31.796875 9.792969 33.929688 10.722656 35.753906 L 11.035156 36.316406 C 11.21875 36.648438 11.441406 36.964844 11.667969 37.273438 C 11.898438 37.578125 11.980469 37.75 12.125 37.953125 C 14.578125 40.710938 18.238281 42.039062 22.460938 42.039062 C 31.8125 42.039062 39.75 37.894531 43.261719 28.585938 C 45.753906 28.84375 48.144531 28.203125 49.234375 26.078125 C 47.5 25.074219 45.269531 25.398438 43.984375 26.042969 L 47.386719 16.371094 L 34.09375 24.867188 L 29.847656 24.867188 L 29.847656 16.371094 Z M 17.105469 16.371094 "/>
</clipPath>
<clipPath id="clip47">
  <path d="M 22 25 L 26 25 L 26 29 L 22 29 Z M 22 25 "/>
</clipPath>
<clipPath id="clip48">
  <path d="M 17.105469 16.371094 L 17.105469 24.867188 L 13.042969 24.867188 L 13.042969 29.113281 L 9.640625 29.113281 L 9.601562 29.480469 C 9.390625 31.796875 9.792969 33.929688 10.722656 35.753906 L 11.035156 36.316406 C 11.21875 36.648438 11.441406 36.964844 11.667969 37.273438 C 11.898438 37.578125 11.980469 37.75 12.125 37.953125 C 14.578125 40.710938 18.238281 42.039062 22.460938 42.039062 C 31.8125 42.039062 39.75 37.894531 43.261719 28.585938 C 45.753906 28.84375 48.144531 28.203125 49.234375 26.078125 C 47.5 25.074219 45.269531 25.398438 43.984375 26.042969 L 47.386719 16.371094 L 34.09375 24.867188 L 29.847656 24.867188 L 29.847656 16.371094 Z M 17.105469 16.371094 "/>
</clipPath>
<clipPath id="clip49">
  <path d="M 22 21 L 25 21 L 25 25 L 22 25 Z M 22 21 "/>
</clipPath>
<clipPath id="clip50">
  <path d="M 17.105469 16.371094 L 17.105469 24.867188 L 13.042969 24.867188 L 13.042969 29.113281 L 9.640625 29.113281 L 9.601562 29.480469 C 9.390625 31.796875 9.792969 33.929688 10.722656 35.753906 L 11.035156 36.316406 C 11.21875 36.648438 11.441406 36.964844 11.667969 37.273438 C 11.898438 37.578125 11.980469 37.75 12.125 37.953125 C 14.578125 40.710938 18.238281 42.039062 22.460938 42.039062 C 31.8125 42.039062 39.75 37.894531 43.261719 28.585938 C 45.753906 28.84375 48.144531 28.203125 49.234375 26.078125 C 47.5 25.074219 45.269531 25.398438 43.984375 26.042969 L 47.386719 16.371094 L 34.09375 24.867188 L 29.847656 24.867188 L 29.847656 16.371094 Z M 17.105469 16.371094 "/>
</clipPath>
<clipPath id="clip51">
  <path d="M 22 21 L 26 21 L 26 25 L 22 25 Z M 22 21 "/>
</clipPath>
<clipPath id="clip52">
  <path d="M 17.105469 16.371094 L 17.105469 24.867188 L 13.042969 24.867188 L 13.042969 29.113281 L 9.640625 29.113281 L 9.601562 29.480469 C 9.390625 31.796875 9.792969 33.929688 10.722656 35.753906 L 11.035156 36.316406 C 11.21875 36.648438 11.441406 36.964844 11.667969 37.273438 C 11.898438 37.578125 11.980469 37.75 12.125 37.953125 C 14.578125 40.710938 18.238281 42.039062 22.460938 42.039062 C 31.8125 42.039062 39.75 37.894531 43.261719 28.585938 C 45.753906 28.84375 48.144531 28.203125 49.234375 26.078125 C 47.5 25.074219 45.269531 25.398438 43.984375 26.042969 L 47.386719 16.371094 L 34.09375 24.867188 L 29.847656 24.867188 L 29.847656 16.371094 Z M 17.105469 16.371094 "/>
</clipPath>
<clipPath id="clip53">
  <path d="M 25 20 L 30 20 L 30 25 L 25 25 Z M 25 20 "/>
</clipPath>
<clipPath id="clip54">
  <path d="M 17.105469 16.371094 L 17.105469 24.867188 L 13.042969 24.867188 L 13.042969 29.113281 L 9.640625 29.113281 L 9.601562 29.480469 C 9.390625 31.796875 9.792969 33.929688 10.722656 35.753906 L 11.035156 36.316406 C 11.21875 36.648438 11.441406 36.964844 11.667969 37.273438 C 11.898438 37.578125 11.980469 37.75 12.125 37.953125 C 14.578125 40.710938 18.238281 42.039062 22.460938 42.039062 C 31.8125 42.039062 39.75 37.894531 43.261719 28.585938 C 45.753906 28.84375 48.144531 28.203125 49.234375 26.078125 C 47.5 25.074219 45.269531 25.398438 43.984375 26.042969 L 47.386719 16.371094 L 34.09375 24.867188 L 29.847656 24.867188 L 29.847656 16.371094 Z M 17.105469 16.371094 "/>
</clipPath>
<clipPath id="clip55">
  <path d="M 25 25 L 30 25 L 30 29 L 25 29 Z M 25 25 "/>
</clipPath>
<clipPath id="clip56">
  <path d="M 17.105469 16.371094 L 17.105469 24.867188 L 13.042969 24.867188 L 13.042969 29.113281 L 9.640625 29.113281 L 9.601562 29.480469 C 9.390625 31.796875 9.792969 33.929688 10.722656 35.753906 L 11.035156 36.316406 C 11.21875 36.648438 11.441406 36.964844 11.667969 37.273438 C 11.898438 37.578125 11.980469 37.75 12.125 37.953125 C 14.578125 40.710938 18.238281 42.039062 22.460938 42.039062 C 31.8125 42.039062 39.75 37.894531 43.261719 28.585938 C 45.753906 28.84375 48.144531 28.203125 49.234375 26.078125 C 47.5 25.074219 45.269531 25.398438 43.984375 26.042969 L 47.386719 16.371094 L 34.09375 24.867188 L 29.847656 24.867188 L 29.847656 16.371094 Z M 17.105469 16.371094 "/>
</clipPath>
<clipPath id="clip57">
  <path d="M 26 21 L 30 21 L 30 25 L 26 25 Z M 26 21 "/>
</clipPath>
<clipPath id="clip58">
  <path d="M 17.105469 16.371094 L 17.105469 24.867188 L 13.042969 24.867188 L 13.042969 29.113281 L 9.640625 29.113281 L 9.601562 29.480469 C 9.390625 31.796875 9.792969 33.929688 10.722656 35.753906 L 11.035156 36.316406 C 11.21875 36.648438 11.441406 36.964844 11.667969 37.273438 C 11.898438 37.578125 11.980469 37.75 12.125 37.953125 C 14.578125 40.710938 18.238281 42.039062 22.460938 42.039062 C 31.8125 42.039062 39.75 37.894531 43.261719 28.585938 C 45.753906 28.84375 48.144531 28.203125 49.234375 26.078125 C 47.5 25.074219 45.269531 25.398438 43.984375 26.042969 L 47.386719 16.371094 L 34.09375 24.867188 L 29.847656 24.867188 L 29.847656 16.371094 Z M 17.105469 16.371094 "/>
</clipPath>
<clipPath id="clip59">
  <path d="M 26 25 L 30 25 L 30 29 L 26 29 Z M 26 25 "/>
</clipPath>
<clipPath id="clip60">
  <path d="M 17.105469 16.371094 L 17.105469 24.867188 L 13.042969 24.867188 L 13.042969 29.113281 L 9.640625 29.113281 L 9.601562 29.480469 C 9.390625 31.796875 9.792969 33.929688 10.722656 35.753906 L 11.035156 36.316406 C 11.21875 36.648438 11.441406 36.964844 11.667969 37.273438 C 11.898438 37.578125 11.980469 37.75 12.125 37.953125 C 14.578125 40.710938 18.238281 42.039062 22.460938 42.039062 C 31.8125 42.039062 39.75 37.894531 43.261719 28.585938 C 45.753906 28.84375 48.144531 28.203125 49.234375 26.078125 C 47.5 25.074219 45.269531 25.398438 43.984375 26.042969 L 47.386719 16.371094 L 34.09375 24.867188 L 29.847656 24.867188 L 29.847656 16.371094 Z M 17.105469 16.371094 "/>
</clipPath>
<clipPath id="clip61">
  <path d="M 30 25 L 34 25 L 34 29 L 30 29 Z M 30 25 "/>
</clipPath>
<clipPath id="clip62">
  <path d="M 17.105469 16.371094 L 17.105469 24.867188 L 13.042969 24.867188 L 13.042969 29.113281 L 9.640625 29.113281 L 9.601562 29.480469 C 9.390625 31.796875 9.792969 33.929688 10.722656 35.753906 L 11.035156 36.316406 C 11.21875 36.648438 11.441406 36.964844 11.667969 37.273438 C 11.898438 37.578125 11.980469 37.75 12.125 37.953125 C 14.578125 40.710938 18.238281 42.039062 22.460938 42.039062 C 31.8125 42.039062 39.75 37.894531 43.261719 28.585938 C 45.753906 28.84375 48.144531 28.203125 49.234375 26.078125 C 47.5 25.074219 45.269531 25.398438 43.984375 26.042969 L 47.386719 16.371094 L 34.09375 24.867188 L 29.847656 24.867188 L 29.847656 16.371094 Z M 17.105469 16.371094 "/>
</clipPath>
<clipPath id="clip63">
  <path d="M 30 20 L 34 20 L 34 25 L 30 25 Z M 30 20 "/>
</clipPath>
<clipPath id="clip64">
  <path d="M 17.105469 16.371094 L 17.105469 24.867188 L 13.042969 24.867188 L 13.042969 29.113281 L 9.640625 29.113281 L 9.601562 29.480469 C 9.390625 31.796875 9.792969 33.929688 10.722656 35.753906 L 11.035156 36.316406 C 11.21875 36.648438 11.441406 36.964844 11.667969 37.273438 C 11.898438 37.578125 11.980469 37.75 12.125 37.953125 C 14.578125 40.710938 18.238281 42.039062 22.460938 42.039062 C 31.8125 42.039062 39.75 37.894531 43.261719 28.585938 C 45.753906 28.84375 48.144531 28.203125 49.234375 26.078125 C 47.5 25.074219 45.269531 25.398438 43.984375 26.042969 L 47.386719 16.371094 L 34.09375 24.867188 L 29.847656 24.867188 L 29.847656 16.371094 Z M 17.105469 16.371094 "/>
</clipPath>
<clipPath id="clip65">
  <path d="M 30 25 L 34 25 L 34 29 L 30 29 Z M 30 25 "/>
</clipPath>
<clipPath id="clip66">
  <path d="M 17.105469 16.371094 L 17.105469 24.867188 L 13.042969 24.867188 L 13.042969 29.113281 L 9.640625 29.113281 L 9.601562 29.480469 C 9.390625 31.796875 9.792969 33.929688 10.722656 35.753906 L 11.035156 36.316406 C 11.21875 36.648438 11.441406 36.964844 11.667969 37.273438 C 11.898438 37.578125 11.980469 37.75 12.125 37.953125 C 14.578125 40.710938 18.238281 42.039062 22.460938 42.039062 C 31.8125 42.039062 39.75 37.894531 43.261719 28.585938 C 45.753906 28.84375 48.144531 28.203125 49.234375 26.078125 C 47.5 25.074219 45.269531 25.398438 43.984375 26.042969 L 47.386719 16.371094 L 34.09375 24.867188 L 29.847656 24.867188 L 29.847656 16.371094 Z M 17.105469 16.371094 "/>
</clipPath>
<clipPath id="clip67">
  <path d="M 30 21 L 34 21 L 34 25 L 30 25 Z M 30 21 "/>
</clipPath>
<clipPath id="clip68">
  <path d="M 17.105469 16.371094 L 17.105469 24.867188 L 13.042969 24.867188 L 13.042969 29.113281 L 9.640625 29.113281 L 9.601562 29.480469 C 9.390625 31.796875 9.792969 33.929688 10.722656 35.753906 L 11.035156 36.316406 C 11.21875 36.648438 11.441406 36.964844 11.667969 37.273438 C 11.898438 37.578125 11.980469 37.75 12.125 37.953125 C 14.578125 40.710938 18.238281 42.039062 22.460938 42.039062 C 31.8125 42.039062 39.75 37.894531 43.261719 28.585938 C 45.753906 28.84375 48.144531 28.203125 49.234375 26.078125 C 47.5 25.074219 45.269531 25.398438 43.984375 26.042969 L 47.386719 16.371094 L 34.09375 24.867188 L 29.847656 24.867188 L 29.847656 16.371094 Z M 17.105469 16.371094 "/>
</clipPath>
<clipPath id="clip69">
  <path d="M 9 21 L 50 21 L 50 43 L 9 43 Z M 9 21 "/>
</clipPath>
<clipPath id="clip70">
  <path d="M 17.105469 16.371094 L 17.105469 24.867188 L 13.042969 24.867188 L 13.042969 29.113281 L 9.640625 29.113281 L 9.601562 29.480469 C 9.390625 31.796875 9.792969 33.929688 10.722656 35.753906 L 11.035156 36.316406 C 11.21875 36.648438 11.441406 36.964844 11.667969 37.273438 C 11.898438 37.578125 11.980469 37.75 12.125 37.953125 C 14.578125 40.710938 18.238281 42.039062 22.460938 42.039062 C 31.8125 42.039062 39.75 37.894531 43.261719 28.585938 C 45.753906 28.84375 48.144531 28.203125 49.234375 26.078125 C 47.5 25.074219 45.269531 25.398438 43.984375 26.042969 L 47.386719 16.371094 L 34.09375 24.867188 L 29.847656 24.867188 L 29.847656 16.371094 Z M 17.105469 16.371094 "/>
</clipPath>
<clipPath id="clip71">
  <path d="M 9 32 L 50 32 L 50 43 L 9 43 Z M 9 32 "/>
</clipPath>
<clipPath id="clip72">
  <path d="M 17.105469 16.371094 L 17.105469 24.867188 L 13.042969 24.867188 L 13.042969 29.113281 L 9.640625 29.113281 L 9.601562 29.480469 C 9.390625 31.796875 9.792969 33.929688 10.722656 35.753906 L 11.035156 36.316406 C 11.21875 36.648438 11.441406 36.964844 11.667969 37.273438 C 11.898438 37.578125 11.980469 37.75 12.125 37.953125 C 14.578125 40.710938 18.238281 42.039062 22.460938 42.039062 C 31.8125 42.039062 39.75 37.894531 43.261719 28.585938 C 45.753906 28.84375 48.144531 28.203125 49.234375 26.078125 C 47.5 25.074219 45.269531 25.398438 43.984375 26.042969 L 47.386719 16.371094 L 34.09375 24.867188 L 29.847656 24.867188 L 29.847656 16.371094 Z M 17.105469 16.371094 "/>
</clipPath>
<clipPath id="clip73">
  <path d="M 11 37 L 24 37 L 24 43 L 11 43 Z M 11 37 "/>
</clipPath>
<clipPath id="clip74">
  <path d="M 17.105469 16.371094 L 17.105469 24.867188 L 13.042969 24.867188 L 13.042969 29.113281 L 9.640625 29.113281 L 9.601562 29.480469 C 9.390625 31.796875 9.792969 33.929688 10.722656 35.753906 L 11.035156 36.316406 C 11.21875 36.648438 11.441406 36.964844 11.667969 37.273438 C 11.898438 37.578125 11.980469 37.75 12.125 37.953125 C 14.578125 40.710938 18.238281 42.039062 22.460938 42.039062 C 31.8125 42.039062 39.75 37.894531 43.261719 28.585938 C 45.753906 28.84375 48.144531 28.203125 49.234375 26.078125 C 47.5 25.074219 45.269531 25.398438 43.984375 26.042969 L 47.386719 16.371094 L 34.09375 24.867188 L 29.847656 24.867188 L 29.847656 16.371094 Z M 17.105469 16.371094 "/>
</clipPath>
<clipPath id="clip75">
  <path d="M 9 25 L 50 25 L 50 43 L 9 43 Z M 9 25 "/>
</clipPath>
<clipPath id="clip76">
  <path d="M 17.105469 16.371094 L 17.105469 24.867188 L 13.042969 24.867188 L 13.042969 29.113281 L 9.640625 29.113281 L 9.601562 29.480469 C 9.390625 31.796875 9.792969 33.929688 10.722656 35.753906 L 11.035156 36.316406 C 11.21875 36.648438 11.441406 36.964844 11.667969 37.273438 C 11.898438 37.578125 11.980469 37.75 12.125 37.953125 C 14.578125 40.710938 18.238281 42.039062 22.460938 42.039062 C 31.8125 42.039062 39.75 37.894531 43.261719 28.585938 C 45.753906 28.84375 48.144531 28.203125 49.234375 26.078125 C 47.5 25.074219 45.269531 25.398438 43.984375 26.042969 L 47.386719 16.371094 L 34.09375 24.867188 L 29.847656 24.867188 L 29.847656 16.371094 Z M 17.105469 16.371094 "/>
</clipPath>
</defs>
<g id="surface1">
<path style="fill:none;stroke-width:10.5;stroke-linecap:round;stroke-linejoin:round;stroke:rgb(22.352941%,30.196078%,32.941176%);stroke-opacity:1;stroke-miterlimit:4;" d="M 467.816674 28.246289 L 467.774367 2.69243 L 467.647443 -42.978746 M 493.497456 -23.305659 L 467.774367 2.671277 L 493.624379 28.330905 M 321.28391 3.030892 C 321.410833 -2.447957 319.824294 -8.053729 316.587754 -12.601808 C 311.933905 -19.117196 304.403132 -23.601813 296.153128 -23.686429 C 295.603128 -23.686429 295.053128 -23.686429 294.503127 -23.644121 C 291.245433 -23.432582 288.072355 -22.988352 285.280046 -21.824889 C 266.876191 -14.167193 263.618497 11.386665 279.145428 22.957825 C 292.578126 32.963599 312.145444 28.880905 318.914678 13.60782 C 320.35314 10.37128 321.28391 6.30974 321.28391 3.030892 L 321.28391 -43.190285 M 445.435894 -20.640273 C 441.6282 -23.094121 437.18589 -23.982583 432.785888 -23.982583 C 432.299349 -23.982583 431.81281 -23.940275 431.389733 -23.940275 C 418.676265 -23.390275 406.893567 -14.399886 406.893567 3.030892 C 406.893567 23.613595 428.978194 34.740523 445.478202 25.030903 M 519.622469 22.788594 L 558.672488 -10.676807 C 558.672488 -10.676807 557.720565 -12.474885 557.107103 -13.299885 C 551.860946 -20.365273 543.822481 -23.897967 535.360938 -23.897967 C 514.460928 -23.897967 498.78592 3.136661 519.622469 22.788594 C 521.060931 24.142441 523.049394 25.200134 525.249395 26.130903 C 532.907091 29.303982 543.37825 29.050136 549.02633 24.861672 M 364.035854 -23.813352 C 363.443546 -23.792198 362.851238 -23.728736 362.25893 -23.728736 C 346.393538 -23.411429 334.970455 -6.953728 338.439687 8.319356 C 341.803151 23.190517 358.070466 32.011676 372.116627 27.146289 C 388.468558 22.830902 395.153177 2.248199 386.162788 -11.671038 C 381.255093 -19.265273 372.920474 -23.982583 364.035854 -23.813352 Z M 604.766742 -23.305659 C 598.335969 -23.284505 592.074428 -21.042197 587.441733 -16.705656 C 580.143653 -10.676807 578.557113 -3.061419 578.641729 6.563586 L 578.853267 28.457828 " transform="matrix(0.184659,0,0,0.184659,3.070472,31.698131)"/>
<path style=" stroke:none;fill-rule:nonzero;fill:rgb(22.352941%,30.196078%,32.941176%);fill-opacity:1;" d="M 30.304688 24.445312 L 34.527344 24.445312 L 34.527344 28.761719 L 36.664062 28.761719 C 37.648438 28.761719 38.664062 28.589844 39.597656 28.269531 C 40.054688 28.117188 40.570312 27.898438 41.023438 27.625 C 40.425781 26.847656 40.121094 25.863281 40.03125 24.894531 C 39.910156 23.578125 40.175781 21.863281 41.066406 20.832031 L 41.511719 20.320312 L 42.039062 20.746094 C 43.371094 21.8125 44.492188 23.3125 44.6875 25.011719 C 46.292969 24.542969 48.175781 24.652344 49.589844 25.46875 L 50.167969 25.804688 L 49.863281 26.398438 C 48.667969 28.734375 46.167969 29.457031 43.726562 29.328125 C 40.070312 38.433594 32.113281 42.746094 22.460938 42.746094 C 17.476562 42.746094 12.902344 40.878906 10.296875 36.457031 C 10.144531 36.183594 10.015625 35.894531 9.875 35.613281 C 8.996094 33.667969 8.703125 31.53125 8.902344 29.402344 L 8.960938 28.761719 L 12.570312 28.761719 L 12.570312 24.445312 L 16.792969 24.445312 L 16.792969 20.222656 L 25.238281 20.222656 L 25.238281 16.003906 L 30.304688 16.003906 L 30.304688 24.445312 "/>
<g clip-path="url(#clip1)" clip-rule="nonzero">
<g clip-path="url(#clip2)" clip-rule="nonzero">
<path style=" stroke:none;fill-rule:nonzero;fill:rgb(0%,67.45098%,82.745098%);fill-opacity:1;" d="M 25.941406 12.480469 L 29.601562 12.480469 L 29.601562 16.140625 L 25.941406 16.140625 Z M 25.941406 12.480469 "/>
</g>
</g>
<g clip-path="url(#clip3)" clip-rule="nonzero">
<g clip-path="url(#clip4)" clip-rule="nonzero">
<path style=" stroke:none;fill-rule:nonzero;fill:rgb(12.54902%,76.078431%,93.72549%);fill-opacity:1;" d="M 25.941406 16.707031 L 29.601562 16.707031 L 29.601562 20.367188 L 25.941406 20.367188 Z M 25.941406 16.707031 "/>
</g>
</g>
<g clip-path="url(#clip5)" clip-rule="nonzero">
<g clip-path="url(#clip6)" clip-rule="nonzero">
<path style=" stroke:none;fill-rule:nonzero;fill:rgb(0%,0%,0%);fill-opacity:1;" d="M 26.390625 20.058594 L 26.390625 17.011719 M 26.941406 20.058594 L 26.941406 17.011719 M 27.496094 20.058594 L 27.496094 17.011719 M 28.050781 20.058594 L 28.050781 17.011719 M 28.605469 20.058594 L 28.605469 17.011719 M 29.152344 20.058594 L 29.152344 17.011719 "/>
</g>
</g>
<g clip-path="url(#clip7)" clip-rule="nonzero">
<g clip-path="url(#clip8)" clip-rule="nonzero">
<path style="fill:none;stroke-width:1.56;stroke-linecap:butt;stroke-linejoin:miter;stroke:rgb(22.352941%,30.196078%,32.941176%);stroke-opacity:1;stroke-miterlimit:4;" d="M 126.28766 21.967398 L 126.28766 5.46739 M 129.270354 21.967398 L 129.270354 5.46739 M 132.274201 21.967398 L 132.274201 5.46739 M 135.278049 21.967398 L 135.278049 5.46739 M 138.281897 21.967398 L 138.281897 5.46739 M 141.243437 21.967398 L 141.243437 5.46739 " transform="matrix(0.184659,0,0,0.184659,3.070472,16.002116)"/>
</g>
</g>
<g clip-path="url(#clip9)" clip-rule="nonzero">
<g clip-path="url(#clip10)" clip-rule="nonzero">
<path style=" stroke:none;fill-rule:nonzero;fill:rgb(0%,67.45098%,82.745098%);fill-opacity:1;" d="M 30.164062 20.367188 L 33.824219 20.367188 L 33.824219 16.707031 L 30.164062 16.707031 Z M 30.164062 20.367188 "/>
</g>
</g>
<g clip-path="url(#clip11)" clip-rule="nonzero">
<g clip-path="url(#clip12)" clip-rule="nonzero">
<path style=" stroke:none;fill-rule:nonzero;fill:rgb(12.54902%,76.078431%,93.72549%);fill-opacity:1;" d="M 30.164062 16.144531 L 33.824219 16.144531 L 33.824219 12.484375 L 30.164062 12.484375 Z M 30.164062 16.144531 "/>
</g>
</g>
<g clip-path="url(#clip13)" clip-rule="nonzero">
<g clip-path="url(#clip14)" clip-rule="nonzero">
<path style=" stroke:none;fill-rule:nonzero;fill:rgb(0%,0%,0%);fill-opacity:1;" d="M 30.613281 17.011719 L 30.613281 20.0625 M 31.164062 17.011719 L 31.164062 20.0625 M 31.71875 17.011719 L 31.71875 20.0625 M 32.273438 17.011719 L 32.273438 20.0625 M 32.824219 17.011719 L 32.824219 20.0625 M 33.375 17.011719 L 33.375 20.0625 "/>
</g>
</g>
<g clip-path="url(#clip15)" clip-rule="nonzero">
<g clip-path="url(#clip16)" clip-rule="nonzero">
<path style="fill:none;stroke-width:1.56;stroke-linecap:butt;stroke-linejoin:miter;stroke:rgb(22.352941%,30.196078%,32.941176%);stroke-opacity:1;stroke-miterlimit:4;" d="M 126.288979 21.971261 L 126.288979 5.450099 M 129.271673 21.971261 L 129.271673 5.450099 M 132.27552 21.971261 L 132.27552 5.450099 M 135.279368 21.971261 L 135.279368 5.450099 M 138.262062 21.971261 L 138.262062 5.450099 M 141.244756 21.971261 L 141.244756 5.450099 " transform="matrix(0.184659,0,0,-0.184659,7.292885,21.06891)"/>
</g>
</g>
<g clip-path="url(#clip17)" clip-rule="nonzero">
<g clip-path="url(#clip18)" clip-rule="nonzero">
<path style=" stroke:none;fill-rule:nonzero;fill:rgb(0%,67.45098%,82.745098%);fill-opacity:1;" d="M 9.050781 20.925781 L 12.710938 20.925781 L 12.710938 24.585938 L 9.050781 24.585938 Z M 9.050781 20.925781 "/>
</g>
</g>
<g clip-path="url(#clip19)" clip-rule="nonzero">
<g clip-path="url(#clip20)" clip-rule="nonzero">
<path style=" stroke:none;fill-rule:nonzero;fill:rgb(12.54902%,76.078431%,93.72549%);fill-opacity:1;" d="M 9.050781 25.152344 L 12.710938 25.152344 L 12.710938 28.808594 L 9.050781 28.808594 Z M 9.050781 25.152344 "/>
</g>
</g>
<g clip-path="url(#clip21)" clip-rule="nonzero">
<g clip-path="url(#clip22)" clip-rule="nonzero">
<path style="fill-rule:nonzero;fill:rgb(0%,0%,0%);fill-opacity:1;stroke-width:1.56;stroke-linecap:butt;stroke-linejoin:miter;stroke:rgb(22.352941%,30.196078%,32.941176%);stroke-opacity:1;stroke-miterlimit:4;" d="M 126.282384 21.968717 L 126.282384 5.468709 M 129.265078 21.968717 L 129.265078 5.468709 M 132.268926 21.968717 L 132.268926 5.468709 M 135.272773 21.968717 L 135.272773 5.468709 M 138.276621 21.968717 L 138.276621 5.468709 M 141.238161 21.968717 L 141.238161 5.468709 " transform="matrix(0.184659,0,0,0.184659,-13.819179,20.224529)"/>
</g>
</g>
<g clip-path="url(#clip23)" clip-rule="nonzero">
<g clip-path="url(#clip24)" clip-rule="nonzero">
<path style="fill-rule:nonzero;fill:rgb(0%,0%,0%);fill-opacity:1;stroke-width:1.56;stroke-linecap:butt;stroke-linejoin:miter;stroke:rgb(22.352941%,30.196078%,32.941176%);stroke-opacity:1;stroke-miterlimit:4;" d="M 126.282384 21.970036 L 126.282384 5.470028 M 129.265078 21.970036 L 129.265078 5.470028 M 132.268926 21.970036 L 132.268926 5.470028 M 135.272773 21.970036 L 135.272773 5.470028 M 138.276621 21.970036 L 138.276621 5.470028 M 141.238161 21.970036 L 141.238161 5.470028 " transform="matrix(0.184659,0,0,0.184659,-13.819179,24.446941)"/>
</g>
</g>
<g clip-path="url(#clip25)" clip-rule="nonzero">
<g clip-path="url(#clip26)" clip-rule="nonzero">
<path style=" stroke:none;fill-rule:nonzero;fill:rgb(0%,67.45098%,82.745098%);fill-opacity:1;" d="M 13.273438 28.8125 L 16.933594 28.8125 L 16.933594 25.152344 L 13.273438 25.152344 Z M 13.273438 28.8125 "/>
</g>
</g>
<g clip-path="url(#clip27)" clip-rule="nonzero">
<g clip-path="url(#clip28)" clip-rule="nonzero">
<path style=" stroke:none;fill-rule:nonzero;fill:rgb(12.54902%,76.078431%,93.72549%);fill-opacity:1;" d="M 13.273438 24.585938 L 16.933594 24.585938 L 16.933594 20.929688 L 13.273438 20.929688 Z M 13.273438 24.585938 "/>
</g>
</g>
<g clip-path="url(#clip29)" clip-rule="nonzero">
<g clip-path="url(#clip30)" clip-rule="nonzero">
<path style="fill-rule:nonzero;fill:rgb(0%,0%,0%);fill-opacity:1;stroke-width:1.56;stroke-linecap:butt;stroke-linejoin:miter;stroke:rgb(22.352941%,30.196078%,32.941176%);stroke-opacity:1;stroke-miterlimit:4;" d="M 126.283703 21.968623 L 126.283703 5.468615 M 129.266397 21.968623 L 129.266397 5.468615 M 132.270245 21.968623 L 132.270245 5.468615 M 135.274092 21.968623 L 135.274092 5.468615 M 138.27794 21.968623 L 138.27794 5.468615 M 141.23948 21.968623 L 141.23948 5.468615 " transform="matrix(0.184659,0,0,-0.184659,-9.596766,29.513735)"/>
</g>
</g>
<g clip-path="url(#clip31)" clip-rule="nonzero">
<g clip-path="url(#clip32)" clip-rule="nonzero">
<path style="fill-rule:nonzero;fill:rgb(0%,0%,0%);fill-opacity:1;stroke-width:1.56;stroke-linecap:butt;stroke-linejoin:miter;stroke:rgb(22.352941%,30.196078%,32.941176%);stroke-opacity:1;stroke-miterlimit:4;" d="M 126.283703 21.969942 L 126.283703 5.469934 M 129.266397 21.969942 L 129.266397 5.469934 M 132.270245 21.969942 L 132.270245 5.469934 M 135.274092 21.969942 L 135.274092 5.469934 M 138.27794 21.969942 L 138.27794 5.469934 M 141.23948 21.969942 L 141.23948 5.469934 " transform="matrix(0.184659,0,0,-0.184659,-9.596766,25.291323)"/>
</g>
</g>
<g clip-path="url(#clip33)" clip-rule="nonzero">
<g clip-path="url(#clip34)" clip-rule="nonzero">
<path style=" stroke:none;fill-rule:nonzero;fill:rgb(0%,67.45098%,82.745098%);fill-opacity:1;" d="M 17.496094 20.925781 L 21.15625 20.925781 L 21.15625 24.585938 L 17.496094 24.585938 Z M 17.496094 20.925781 "/>
</g>
</g>
<g clip-path="url(#clip35)" clip-rule="nonzero">
<g clip-path="url(#clip36)" clip-rule="nonzero">
<path style=" stroke:none;fill-rule:nonzero;fill:rgb(12.54902%,76.078431%,93.72549%);fill-opacity:1;" d="M 17.496094 25.152344 L 21.15625 25.152344 L 21.15625 28.808594 L 17.496094 28.808594 Z M 17.496094 25.152344 "/>
</g>
</g>
<g clip-path="url(#clip37)" clip-rule="nonzero">
<g clip-path="url(#clip38)" clip-rule="nonzero">
<path style="fill-rule:nonzero;fill:rgb(0%,0%,0%);fill-opacity:1;stroke-width:1.56;stroke-linecap:butt;stroke-linejoin:miter;stroke:rgb(22.352941%,30.196078%,32.941176%);stroke-opacity:1;stroke-miterlimit:4;" d="M 126.285022 21.968717 L 126.285022 5.468709 M 129.267716 21.968717 L 129.267716 5.468709 M 132.271563 21.968717 L 132.271563 5.468709 M 135.275411 21.968717 L 135.275411 5.468709 M 138.279259 21.968717 L 138.279259 5.468709 M 141.240799 21.968717 L 141.240799 5.468709 " transform="matrix(0.184659,0,0,0.184659,-5.374353,20.224529)"/>
</g>
</g>
<g clip-path="url(#clip39)" clip-rule="nonzero">
<g clip-path="url(#clip40)" clip-rule="nonzero">
<path style="fill-rule:nonzero;fill:rgb(0%,0%,0%);fill-opacity:1;stroke-width:1.56;stroke-linecap:butt;stroke-linejoin:miter;stroke:rgb(22.352941%,30.196078%,32.941176%);stroke-opacity:1;stroke-miterlimit:4;" d="M 126.285022 21.970036 L 126.285022 5.470028 M 129.267716 21.970036 L 129.267716 5.470028 M 132.271563 21.970036 L 132.271563 5.470028 M 135.275411 21.970036 L 135.275411 5.470028 M 138.279259 21.970036 L 138.279259 5.470028 M 141.240799 21.970036 L 141.240799 5.470028 " transform="matrix(0.184659,0,0,0.184659,-5.374353,24.446941)"/>
</g>
</g>
<g clip-path="url(#clip41)" clip-rule="nonzero">
<g clip-path="url(#clip42)" clip-rule="nonzero">
<path style=" stroke:none;fill-rule:nonzero;fill:rgb(0%,67.45098%,82.745098%);fill-opacity:1;" d="M 21.71875 28.8125 L 25.378906 28.8125 L 25.378906 25.152344 L 21.71875 25.152344 Z M 21.71875 28.8125 "/>
</g>
</g>
<g clip-path="url(#clip43)" clip-rule="nonzero">
<g clip-path="url(#clip44)" clip-rule="nonzero">
<path style=" stroke:none;fill-rule:nonzero;fill:rgb(12.54902%,76.078431%,93.72549%);fill-opacity:1;" d="M 21.71875 24.585938 L 25.378906 24.585938 L 25.378906 20.929688 L 21.71875 20.929688 Z M 21.71875 24.585938 "/>
</g>
</g>
<g clip-path="url(#clip45)" clip-rule="nonzero">
<g clip-path="url(#clip46)" clip-rule="nonzero">
<path style=" stroke:none;fill-rule:nonzero;fill:rgb(0%,0%,0%);fill-opacity:1;" d="M 22.167969 25.457031 L 22.167969 28.503906 M 22.71875 25.457031 L 22.71875 28.503906 M 23.273438 25.457031 L 23.273438 28.503906 M 23.828125 25.457031 L 23.828125 28.503906 M 24.382812 25.457031 L 24.382812 28.503906 M 24.929688 25.457031 L 24.929688 28.503906 "/>
</g>
</g>
<g clip-path="url(#clip47)" clip-rule="nonzero">
<g clip-path="url(#clip48)" clip-rule="nonzero">
<path style="fill:none;stroke-width:1.56;stroke-linecap:butt;stroke-linejoin:miter;stroke:rgb(22.352941%,30.196078%,32.941176%);stroke-opacity:1;stroke-miterlimit:4;" d="M 126.286341 21.968623 L 126.286341 5.468615 M 129.269035 21.968623 L 129.269035 5.468615 M 132.272882 21.968623 L 132.272882 5.468615 M 135.27673 21.968623 L 135.27673 5.468615 M 138.280578 21.968623 L 138.280578 5.468615 M 141.242118 21.968623 L 141.242118 5.468615 " transform="matrix(0.184659,0,0,-0.184659,-1.151941,29.513735)"/>
</g>
</g>
<g clip-path="url(#clip49)" clip-rule="nonzero">
<g clip-path="url(#clip50)" clip-rule="nonzero">
<path style=" stroke:none;fill-rule:nonzero;fill:rgb(0%,0%,0%);fill-opacity:1;" d="M 22.167969 21.234375 L 22.167969 24.28125 M 22.71875 21.234375 L 22.71875 24.28125 M 23.273438 21.234375 L 23.273438 24.28125 M 23.828125 21.234375 L 23.828125 24.28125 M 24.382812 21.234375 L 24.382812 24.28125 M 24.929688 21.234375 L 24.929688 24.28125 "/>
</g>
</g>
<g clip-path="url(#clip51)" clip-rule="nonzero">
<g clip-path="url(#clip52)" clip-rule="nonzero">
<path style="fill:none;stroke-width:1.56;stroke-linecap:butt;stroke-linejoin:miter;stroke:rgb(22.352941%,30.196078%,32.941176%);stroke-opacity:1;stroke-miterlimit:4;" d="M 126.286341 21.969942 L 126.286341 5.469934 M 129.269035 21.969942 L 129.269035 5.469934 M 132.272882 21.969942 L 132.272882 5.469934 M 135.27673 21.969942 L 135.27673 5.469934 M 138.280578 21.969942 L 138.280578 5.469934 M 141.242118 21.969942 L 141.242118 5.469934 " transform="matrix(0.184659,0,0,-0.184659,-1.151941,25.291323)"/>
</g>
</g>
<g clip-path="url(#clip53)" clip-rule="nonzero">
<g clip-path="url(#clip54)" clip-rule="nonzero">
<path style=" stroke:none;fill-rule:nonzero;fill:rgb(0%,67.45098%,82.745098%);fill-opacity:1;" d="M 25.941406 20.925781 L 29.601562 20.925781 L 29.601562 24.585938 L 25.941406 24.585938 Z M 25.941406 20.925781 "/>
</g>
</g>
<g clip-path="url(#clip55)" clip-rule="nonzero">
<g clip-path="url(#clip56)" clip-rule="nonzero">
<path style=" stroke:none;fill-rule:nonzero;fill:rgb(12.54902%,76.078431%,93.72549%);fill-opacity:1;" d="M 25.941406 25.152344 L 29.601562 25.152344 L 29.601562 28.808594 L 25.941406 28.808594 Z M 25.941406 25.152344 "/>
</g>
</g>
<g clip-path="url(#clip57)" clip-rule="nonzero">
<g clip-path="url(#clip58)" clip-rule="nonzero">
<path style="fill-rule:nonzero;fill:rgb(0%,0%,0%);fill-opacity:1;stroke-width:1.56;stroke-linecap:butt;stroke-linejoin:miter;stroke:rgb(22.352941%,30.196078%,32.941176%);stroke-opacity:1;stroke-miterlimit:4;" d="M 126.28766 21.968717 L 126.28766 5.468709 M 129.270354 21.968717 L 129.270354 5.468709 M 132.274201 21.968717 L 132.274201 5.468709 M 135.278049 21.968717 L 135.278049 5.468709 M 138.281897 21.968717 L 138.281897 5.468709 M 141.243437 21.968717 L 141.243437 5.468709 " transform="matrix(0.184659,0,0,0.184659,3.070472,20.224529)"/>
</g>
</g>
<g clip-path="url(#clip59)" clip-rule="nonzero">
<g clip-path="url(#clip60)" clip-rule="nonzero">
<path style="fill-rule:nonzero;fill:rgb(0%,0%,0%);fill-opacity:1;stroke-width:1.56;stroke-linecap:butt;stroke-linejoin:miter;stroke:rgb(22.352941%,30.196078%,32.941176%);stroke-opacity:1;stroke-miterlimit:4;" d="M 126.28766 21.970036 L 126.28766 5.470028 M 129.270354 21.970036 L 129.270354 5.470028 M 132.274201 21.970036 L 132.274201 5.470028 M 135.278049 21.970036 L 135.278049 5.470028 M 138.281897 21.970036 L 138.281897 5.470028 M 141.243437 21.970036 L 141.243437 5.470028 " transform="matrix(0.184659,0,0,0.184659,3.070472,24.446941)"/>
</g>
</g>
<g clip-path="url(#clip61)" clip-rule="nonzero">
<g clip-path="url(#clip62)" clip-rule="nonzero">
<path style=" stroke:none;fill-rule:nonzero;fill:rgb(0%,67.45098%,82.745098%);fill-opacity:1;" d="M 30.164062 28.8125 L 33.824219 28.8125 L 33.824219 25.152344 L 30.164062 25.152344 Z M 30.164062 28.8125 "/>
</g>
</g>
<g clip-path="url(#clip63)" clip-rule="nonzero">
<g clip-path="url(#clip64)" clip-rule="nonzero">
<path style=" stroke:none;fill-rule:nonzero;fill:rgb(12.54902%,76.078431%,93.72549%);fill-opacity:1;" d="M 30.164062 24.585938 L 33.824219 24.585938 L 33.824219 20.929688 L 30.164062 20.929688 Z M 30.164062 24.585938 "/>
</g>
</g>
<g clip-path="url(#clip65)" clip-rule="nonzero">
<g clip-path="url(#clip66)" clip-rule="nonzero">
<path style="fill-rule:nonzero;fill:rgb(0%,0%,0%);fill-opacity:1;stroke-width:1.56;stroke-linecap:butt;stroke-linejoin:miter;stroke:rgb(22.352941%,30.196078%,32.941176%);stroke-opacity:1;stroke-miterlimit:4;" d="M 126.288979 21.968623 L 126.288979 5.468615 M 129.271673 21.968623 L 129.271673 5.468615 M 132.27552 21.968623 L 132.27552 5.468615 M 135.279368 21.968623 L 135.279368 5.468615 M 138.262062 21.968623 L 138.262062 5.468615 M 141.244756 21.968623 L 141.244756 5.468615 " transform="matrix(0.184659,0,0,-0.184659,7.292885,29.513735)"/>
</g>
</g>
<g clip-path="url(#clip67)" clip-rule="nonzero">
<g clip-path="url(#clip68)" clip-rule="nonzero">
<path style="fill-rule:nonzero;fill:rgb(0%,0%,0%);fill-opacity:1;stroke-width:1.56;stroke-linecap:butt;stroke-linejoin:miter;stroke:rgb(22.352941%,30.196078%,32.941176%);stroke-opacity:1;stroke-miterlimit:4;" d="M 126.288979 21.969942 L 126.288979 5.469934 M 129.271673 21.969942 L 129.271673 5.469934 M 132.27552 21.969942 L 132.27552 5.469934 M 135.279368 21.969942 L 135.279368 5.469934 M 138.262062 21.969942 L 138.262062 5.469934 M 141.244756 21.969942 L 141.244756 5.469934 " transform="matrix(0.184659,0,0,-0.184659,7.292885,25.291323)"/>
</g>
</g>
<g clip-path="url(#clip69)" clip-rule="nonzero">
<g clip-path="url(#clip70)" clip-rule="nonzero">
<path style=" stroke:none;fill-rule:nonzero;fill:rgb(9.019608%,70.980392%,92.156863%);fill-opacity:1;" d="M 43.984375 26.042969 C 44.269531 23.84375 42.621094 22.117188 41.601562 21.292969 C 40.425781 22.65625 40.242188 26.222656 42.085938 27.722656 C 41.058594 28.636719 38.886719 29.46875 36.664062 29.46875 L 9.347656 29.46875 C 9.132812 31.789062 9.347656 42.960938 9.347656 42.960938 L 49.417969 42.960938 L 49.238281 26.078125 C 47.5 25.078125 45.269531 25.398438 43.984375 26.042969 "/>
</g>
</g>
<g clip-path="url(#clip71)" clip-rule="nonzero">
<g clip-path="url(#clip72)" clip-rule="nonzero">
<path style=" stroke:none;fill-rule:nonzero;fill:rgb(0%,0%,0%);fill-opacity:0.168627;" d="M 9.347656 32.4375 L 9.347656 42.960938 L 49.417969 42.960938 L 49.417969 32.4375 "/>
</g>
</g>
<g clip-path="url(#clip73)" clip-rule="nonzero">
<g clip-path="url(#clip74)" clip-rule="nonzero">
<path style=" stroke:none;fill-rule:nonzero;fill:rgb(83.137255%,92.941176%,94.509804%);fill-opacity:1;" d="M 23.613281 42.019531 C 21.109375 40.835938 19.738281 39.222656 18.976562 37.460938 L 11.378906 37.792969 L 15.257812 42.960938 L 23.613281 42.019531 "/>
</g>
</g>
<g clip-path="url(#clip75)" clip-rule="nonzero">
<g clip-path="url(#clip76)" clip-rule="nonzero">
<path style=" stroke:none;fill-rule:nonzero;fill:rgb(0%,0%,0%);fill-opacity:0.0862745;" d="M 44.15625 25.960938 L 44.15625 25.96875 C 40.304688 30.933594 34.78125 35.269531 28.847656 37.550781 C 23.554688 39.582031 18.941406 39.59375 15.761719 37.960938 C 15.417969 37.765625 15.082031 37.550781 14.746094 37.347656 C 12.410156 35.71875 11.097656 33.019531 11.207031 29.464844 L 9.347656 29.464844 L 9.347656 42.960938 L 49.417969 42.960938 L 49.417969 25.234375 L 44.804688 25.234375 Z M 44.15625 25.960938 "/>
</g>
</g>
<path style="fill:none;stroke-width:3.4;stroke-linecap:round;stroke-linejoin:miter;stroke:rgb(22.352941%,30.196078%,32.941176%);stroke-opacity:1;stroke-miterlimit:4;" d="M 45.628005 32.032829 C 59.779935 32.815522 74.904942 32.942445 88.104949 28.817443 " transform="matrix(0.184659,0,0,0.184659,3.070472,31.698131)"/>
<path style=" stroke:none;fill-rule:nonzero;fill:rgb(83.137255%,92.941176%,94.509804%);fill-opacity:1;" d="M 21.9375 35.753906 C 21.9375 36.3125 21.484375 36.761719 20.925781 36.761719 C 20.371094 36.761719 19.917969 36.3125 19.917969 35.753906 C 19.917969 35.195312 20.371094 34.742188 20.925781 34.742188 C 21.484375 34.742188 21.9375 35.195312 21.9375 35.753906 Z M 21.9375 35.753906 "/>
<path style=" stroke:none;fill-rule:nonzero;fill:rgb(22.352941%,30.196078%,32.941176%);fill-opacity:1;" d="M 21.1875 35.078125 C 21.074219 35.144531 21.019531 35.28125 21.054688 35.410156 C 21.085938 35.539062 21.203125 35.628906 21.335938 35.628906 C 21.449219 35.628906 21.546875 35.566406 21.59375 35.476562 C 21.632812 35.5625 21.652344 35.65625 21.652344 35.753906 C 21.652344 36.152344 21.328125 36.476562 20.925781 36.476562 C 20.527344 36.476562 20.203125 36.152344 20.203125 35.753906 C 20.203125 35.355469 20.527344 35.03125 20.925781 35.03125 C 21.015625 35.03125 21.105469 35.046875 21.1875 35.078125 Z M 3.070312 32.652344 L 50.035156 32.652344 C 49.011719 32.390625 46.800781 32.042969 47.164062 30.703125 C 45.304688 32.851562 40.820312 32.210938 39.6875 31.148438 C 38.429688 32.976562 31.09375 32.28125 30.582031 30.859375 C 29 32.714844 24.105469 32.714844 22.523438 30.859375 C 22.011719 32.28125 14.675781 32.976562 13.417969 31.148438 C 12.285156 32.210938 7.800781 32.851562 5.941406 30.703125 C 6.304688 32.042969 4.09375 32.390625 3.070312 32.652344 "/>
</g>
</svg>
