<?xml version="1.0" encoding="UTF-8"?>
<svg xmlns="http://www.w3.org/2000/svg" xmlns:xlink="http://www.w3.org/1999/xlink" width="94px" height="47px" viewBox="0 0 94 47" version="1.1">
<g id="surface1">
<path style=" stroke:none;fill-rule:nonzero;fill:rgb(0%,0%,0%);fill-opacity:1;" d="M 31.332031 32.707031 L 31.332031 14.65625 L 32.3125 14.65625 L 32.3125 17.496094 C 32.429688 17.367188 32.535156 17.234375 32.632812 17.09375 C 33.449219 15.398438 35.175781 14.328125 37.058594 14.347656 C 39.289062 14.28125 41.105469 15.105469 42.171875 17.09375 C 43.546875 19.597656 43.625 22.613281 42.382812 25.1875 C 41.390625 27.414062 38.9375 28.519531 36.3125 28.113281 C 34.648438 27.972656 33.175781 26.996094 32.390625 25.527344 L 32.390625 32.707031 Z M 32.3125 21.039062 L 32.53125 23.160156 C 32.917969 25.574219 34.34375 27 36.585938 27.265625 C 38.753906 27.621094 40.871094 26.398438 41.644531 24.339844 C 42.515625 22.265625 42.453125 19.914062 41.472656 17.886719 C 40.652344 16.050781 38.710938 14.976562 36.71875 15.261719 C 34.851562 15.394531 33.277344 16.699219 32.792969 18.507812 C 32.585938 19.339844 32.425781 20.1875 32.3125 21.039062 Z M 63.253906 23.492188 C 62.945312 26.121094 60.738281 28.117188 58.09375 28.160156 C 53.988281 28.367188 52.058594 25.640625 51.753906 22.492188 C 51.539062 20.785156 51.816406 19.050781 52.554688 17.492188 C 53.601562 15.300781 55.953125 14.042969 58.359375 14.378906 C 60.644531 14.574219 62.550781 16.210938 63.09375 18.441406 C 63.300781 19.429688 63.453125 20.433594 63.550781 21.441406 L 52.769531 21.441406 C 52.566406 24.292969 54.101562 26.585938 56.273438 27.140625 C 58.980469 27.804688 61.292969 26.632812 62.132812 24.058594 C 62.320312 23.398438 62.660156 23.304688 63.257812 23.492188 Z M 52.761719 20.527344 L 62.40625 20.527344 C 62.34375 17.488281 60.453125 15.277344 57.886719 15.253906 C 54.988281 15.207031 52.886719 17.328125 52.761719 20.527344 Z M 65.246094 23.558594 L 66.191406 23.558594 C 66.261719 24.980469 67.121094 26.242188 68.417969 26.828125 C 70.035156 27.554688 71.894531 27.503906 73.472656 26.695312 C 74.339844 26.300781 74.871094 25.410156 74.804688 24.460938 C 74.855469 23.539062 74.289062 22.699219 73.417969 22.398438 C 72.378906 22.011719 71.273438 21.800781 70.210938 21.460938 C 69.109375 21.144531 68.03125 20.75 66.984375 20.28125 C 65.277344 19.445312 65.171875 16.199219 67.105469 15.171875 C 69.117188 14.039062 71.566406 14 73.613281 15.074219 C 74.859375 15.761719 75.550781 17.152344 75.34375 18.566406 L 74.535156 18.566406 C 74.535156 18.527344 74.460938 18.492188 74.460938 18.453125 C 74.359375 15.867188 72.1875 15.058594 69.855469 15.285156 C 69.148438 15.363281 68.480469 15.578125 67.855469 15.894531 C 67.082031 16.246094 66.617188 17.046875 66.695312 17.894531 C 66.695312 18.738281 67.230469 19.492188 68.027344 19.773438 C 69.046875 20.148438 70.128906 20.386719 71.179688 20.679688 L 73.726562 21.34375 C 74.910156 21.734375 75.734375 22.8125 75.792969 24.058594 C 75.996094 25.425781 75.300781 26.769531 74.066406 27.390625 C 71.839844 28.652344 68.175781 28.316406 66.542969 26.726562 C 65.707031 25.886719 65.238281 24.742188 65.25 23.558594 Z M 87.789062 18.566406 L 86.902344 18.566406 C 86.902344 18.449219 86.855469 18.332031 86.84375 18.242188 C 86.8125 16.871094 85.828125 15.707031 84.484375 15.453125 C 83.25 15.101562 81.9375 15.164062 80.742188 15.632812 C 79.773438 15.910156 79.105469 16.792969 79.097656 17.800781 C 79.0625 18.792969 79.730469 19.675781 80.695312 19.90625 L 84.75 20.949219 C 85.1875 21.054688 85.621094 21.183594 86.042969 21.339844 C 87.335938 21.8125 88.210938 23.011719 88.25 24.382812 C 88.289062 25.757812 87.480469 27.015625 86.214844 27.546875 C 84.3125 28.410156 82.132812 28.433594 80.214844 27.609375 C 78.617188 26.917969 77.617188 25.304688 77.707031 23.566406 L 78.574219 23.566406 C 78.902344 25.140625 79.980469 26.445312 81.457031 27.066406 C 82.9375 27.683594 84.628906 27.53125 85.972656 26.660156 C 86.796875 26.234375 87.296875 25.363281 87.253906 24.433594 C 87.296875 23.515625 86.722656 22.679688 85.847656 22.386719 C 84.808594 22 83.699219 21.796875 82.640625 21.449219 C 81.53125 21.140625 80.445312 20.75 79.394531 20.28125 C 77.726562 19.460938 77.59375 16.242188 79.496094 15.214844 C 81.535156 14.03125 84.042969 14.003906 86.109375 15.140625 C 87.292969 15.851562 87.949219 17.191406 87.78125 18.5625 Z M 29.722656 27.835938 C 29 28.105469 28.1875 27.796875 27.828125 27.113281 L 24.382812 22.347656 L 23.882812 21.683594 L 19.882812 27.121094 C 19.546875 27.777344 18.773438 28.078125 18.082031 27.828125 L 23.234375 20.914062 L 18.441406 14.667969 C 19.152344 14.410156 19.945312 14.691406 20.339844 15.335938 L 23.914062 20.160156 L 27.507812 15.351562 C 27.847656 14.710938 28.613281 14.421875 29.292969 14.6875 L 27.433594 17.15625 L 24.914062 20.433594 C 24.769531 20.5625 24.691406 20.742188 24.691406 20.929688 C 24.691406 21.121094 24.769531 21.300781 24.914062 21.429688 L 29.710938 27.835938 Z M 51.601562 14.601562 L 51.601562 15.542969 C 50.238281 15.453125 48.898438 15.945312 47.917969 16.894531 C 46.9375 17.847656 46.40625 19.167969 46.453125 20.535156 C 46.453125 22.730469 46.453125 24.925781 46.453125 27.121094 L 46.453125 27.867188 L 45.5 27.867188 L 45.5 14.660156 L 46.441406 14.660156 L 46.441406 17.367188 C 47.59375 15.394531 49.375 14.660156 51.605469 14.609375 Z M 5.746094 20.828125 L 6.164062 18.753906 C 7.316406 14.65625 12.015625 12.949219 15.25 15.488281 C 17.144531 16.976562 17.617188 19.082031 17.523438 21.457031 L 6.855469 21.457031 C 6.683594 25.695312 9.742188 28.253906 13.65625 26.949219 C 14.945312 26.476562 15.917969 25.40625 16.234375 24.074219 C 16.441406 23.410156 16.785156 23.292969 17.410156 23.488281 C 17.199219 25.132812 16.246094 26.589844 14.824219 27.441406 C 12.445312 28.742188 9.5 28.367188 7.523438 26.507812 C 6.570312 25.4375 5.996094 24.082031 5.882812 22.652344 C 5.882812 22.417969 5.804688 22.199219 5.75 21.988281 C 5.746094 21.59375 5.742188 21.207031 5.742188 20.828125 Z M 6.871094 20.542969 L 16.515625 20.542969 C 16.457031 17.46875 14.515625 15.289062 11.929688 15.269531 C 9.050781 15.230469 6.992188 17.363281 6.863281 20.527344 Z M 6.871094 20.542969 "/>
</g>
</svg>
