<?xml version="1.0" encoding="UTF-8"?>
<svg xmlns="http://www.w3.org/2000/svg" xmlns:xlink="http://www.w3.org/1999/xlink" width="120px" height="60px" viewBox="0 0 30 15" version="1.1">
<g id="surface1">
<path style=" stroke:none;fill-rule:evenodd;fill:rgb(0%,40.392157%,54.901961%);fill-opacity:1;" d="M 4.5 11.261719 L 5.203125 11.261719 L 5.203125 8.476562 L 6.300781 10.902344 C 6.425781 11.195312 6.605469 11.304688 6.949219 11.304688 C 7.296875 11.304688 7.464844 11.195312 7.59375 10.902344 L 8.683594 8.476562 L 8.683594 11.261719 L 9.394531 11.261719 L 9.394531 8.476562 C 9.394531 8.207031 9.285156 8.074219 9.058594 8.003906 C 8.523438 7.84375 8.164062 7.984375 8.003906 8.347656 L 6.925781 10.746094 L 5.890625 8.347656 C 5.730469 7.984375 5.371094 7.84375 4.828125 8.003906 C 4.605469 8.074219 4.5 8.207031 4.5 8.476562 Z M 9.976562 8.996094 L 10.6875 8.996094 L 10.6875 10.527344 C 10.679688 10.613281 10.714844 10.808594 11.097656 10.8125 C 11.296875 10.816406 12.625 10.8125 12.632812 10.8125 L 12.632812 8.984375 L 13.34375 8.984375 L 13.34375 11.488281 C 13.34375 12.105469 12.578125 12.238281 12.222656 12.246094 L 9.996094 12.246094 L 9.996094 11.773438 L 12.226562 11.773438 C 12.683594 11.726562 12.628906 11.5 12.628906 11.421875 L 12.628906 11.238281 L 11.128906 11.238281 C 10.433594 11.234375 9.984375 10.925781 9.980469 10.574219 L 9.980469 8.996094 Z M 25.171875 7.222656 C 24.738281 7.210938 24.40625 7.253906 24.125 7.371094 C 24.042969 7.40625 23.914062 7.40625 23.902344 7.507812 C 23.945312 7.550781 23.949219 7.621094 23.988281 7.679688 C 24.054688 7.789062 24.167969 7.933594 24.269531 8.011719 C 24.382812 8.097656 24.496094 8.183594 24.617188 8.261719 C 24.828125 8.390625 25.0625 8.464844 25.269531 8.59375 C 25.386719 8.671875 25.507812 8.769531 25.625 8.847656 C 25.6875 8.890625 25.722656 8.964844 25.800781 8.988281 L 25.800781 8.972656 C 25.761719 8.925781 25.75 8.855469 25.714844 8.800781 C 25.660156 8.746094 25.605469 8.699219 25.550781 8.644531 C 25.394531 8.433594 25.199219 8.25 24.988281 8.097656 C 24.816406 7.980469 24.4375 7.816406 24.367188 7.617188 L 24.355469 7.605469 C 24.476562 7.59375 24.617188 7.550781 24.730469 7.519531 C 24.914062 7.46875 25.082031 7.480469 25.269531 7.433594 C 25.355469 7.410156 25.441406 7.382812 25.527344 7.355469 L 25.527344 7.308594 C 25.433594 7.210938 25.363281 7.082031 25.257812 6.988281 C 24.984375 6.75 24.679688 6.519531 24.367188 6.324219 C 24.199219 6.214844 23.984375 6.144531 23.804688 6.054688 C 23.738281 6.019531 23.632812 6.003906 23.59375 5.953125 C 23.496094 5.832031 23.441406 5.675781 23.371094 5.535156 C 23.214844 5.238281 23.0625 4.90625 22.929688 4.59375 C 22.832031 4.382812 22.769531 4.171875 22.652344 3.976562 C 22.09375 3.058594 21.488281 2.5 20.558594 1.957031 C 20.359375 1.839844 20.121094 1.792969 19.867188 1.734375 L 19.464844 1.710938 C 19.375 1.671875 19.289062 1.570312 19.214844 1.523438 C 18.90625 1.328125 18.113281 0.90625 17.882812 1.464844 C 17.738281 1.8125 18.101562 2.160156 18.222656 2.339844 C 18.316406 2.464844 18.433594 2.605469 18.5 2.746094 C 18.535156 2.835938 18.546875 2.933594 18.585938 3.03125 C 18.671875 3.269531 18.753906 3.535156 18.867188 3.753906 C 18.929688 3.871094 18.992188 3.988281 19.066406 4.089844 C 19.109375 4.152344 19.1875 4.175781 19.203125 4.273438 C 19.125 4.382812 19.121094 4.546875 19.078125 4.679688 C 18.882812 5.292969 18.960938 6.046875 19.234375 6.496094 C 19.320312 6.632812 19.527344 6.929688 19.800781 6.816406 C 20.046875 6.71875 19.992188 6.410156 20.0625 6.140625 C 20.078125 6.074219 20.066406 6.03125 20.101562 5.988281 L 20.101562 6 L 20.320312 6.449219 C 20.488281 6.714844 20.78125 6.988281 21.023438 7.171875 C 21.152344 7.269531 21.257812 7.4375 21.417969 7.496094 L 21.417969 7.480469 L 21.410156 7.480469 C 21.375 7.433594 21.328125 7.410156 21.285156 7.375 C 21.1875 7.277344 21.078125 7.15625 21.003906 7.050781 C 20.777344 6.746094 20.574219 6.410156 20.398438 6.066406 C 20.3125 5.898438 20.234375 5.714844 20.164062 5.546875 C 20.132812 5.480469 20.132812 5.382812 20.078125 5.351562 C 19.996094 5.46875 19.878906 5.574219 19.820312 5.71875 C 19.714844 5.953125 19.707031 6.238281 19.667969 6.535156 C 19.644531 6.539062 19.65625 6.535156 19.644531 6.546875 C 19.472656 6.503906 19.414062 6.324219 19.347656 6.171875 C 19.1875 5.789062 19.160156 5.171875 19.300781 4.730469 C 19.335938 4.617188 19.5 4.257812 19.433594 4.152344 C 19.402344 4.046875 19.292969 3.988281 19.234375 3.90625 C 19.164062 3.804688 19.089844 3.675781 19.039062 3.5625 C 18.910156 3.257812 18.84375 2.921875 18.703125 2.621094 C 18.640625 2.480469 18.527344 2.332031 18.433594 2.203125 C 18.332031 2.058594 18.21875 1.957031 18.136719 1.78125 C 18.109375 1.722656 18.074219 1.625 18.117188 1.5625 C 18.125 1.515625 18.148438 1.5 18.191406 1.492188 C 18.261719 1.429688 18.460938 1.507812 18.53125 1.539062 C 18.730469 1.621094 18.898438 1.695312 19.066406 1.808594 C 19.144531 1.863281 19.222656 1.964844 19.320312 1.992188 L 19.433594 1.992188 C 19.609375 2.03125 19.800781 2.003906 19.964844 2.050781 C 20.25 2.144531 20.511719 2.28125 20.742188 2.425781 C 21.453125 2.875 22.035156 3.511719 22.429688 4.273438 C 22.496094 4.398438 22.523438 4.511719 22.582031 4.644531 C 22.695312 4.90625 22.835938 5.179688 22.949219 5.4375 C 23.0625 5.691406 23.171875 5.953125 23.332031 6.164062 C 23.414062 6.277344 23.738281 6.335938 23.886719 6.394531 C 23.992188 6.445312 24.160156 6.488281 24.257812 6.546875 C 24.441406 6.660156 24.625 6.789062 24.796875 6.914062 C 24.886719 6.980469 25.15625 7.113281 25.171875 7.222656 Z M 19.65625 2.523438 C 19.582031 2.523438 19.507812 2.53125 19.4375 2.550781 L 19.4375 2.5625 L 19.445312 2.5625 C 19.492188 2.648438 19.566406 2.707031 19.621094 2.78125 L 19.746094 3.042969 L 19.753906 3.03125 C 19.832031 2.976562 19.867188 2.890625 19.867188 2.761719 C 19.835938 2.722656 19.832031 2.683594 19.804688 2.648438 C 19.773438 2.59375 19.703125 2.566406 19.65625 2.523438 Z M 19.65625 2.523438 "/>
<path style=" stroke:none;fill-rule:evenodd;fill:rgb(80.784314%,54.509804%,17.254902%);fill-opacity:1;" d="M 13.882812 11.261719 L 15.914062 11.261719 C 16.152344 11.261719 16.378906 11.210938 16.5625 11.125 C 16.871094 10.984375 17.019531 10.796875 17.019531 10.546875 L 17.019531 10.027344 C 17.019531 9.828125 16.851562 9.640625 16.515625 9.507812 C 16.34375 9.445312 16.125 9.40625 15.914062 9.40625 L 15.0625 9.40625 C 14.773438 9.40625 14.640625 9.320312 14.601562 9.128906 C 14.597656 9.109375 14.597656 9.085938 14.597656 9.066406 L 14.597656 8.746094 C 14.597656 8.730469 14.597656 8.707031 14.601562 8.6875 C 14.640625 8.542969 14.714844 8.503906 14.964844 8.476562 L 17.046875 8.476562 L 17.046875 8.003906 L 15.066406 8.003906 C 14.78125 8.003906 14.628906 8.023438 14.492188 8.066406 C 14.078125 8.195312 13.894531 8.402344 13.894531 8.761719 L 13.894531 9.175781 C 13.894531 9.492188 14.25 9.761719 14.855469 9.828125 C 14.921875 9.832031 14.992188 9.832031 15.0625 9.832031 L 15.792969 9.832031 C 15.820312 9.832031 15.847656 9.832031 15.867188 9.839844 C 16.089844 9.859375 16.1875 9.898438 16.25 9.980469 C 16.292969 10.023438 16.304688 10.0625 16.304688 10.109375 L 16.304688 10.519531 C 16.304688 10.570312 16.273438 10.632812 16.207031 10.6875 C 16.144531 10.742188 16.039062 10.78125 15.90625 10.785156 C 15.878906 10.785156 15.863281 10.789062 15.835938 10.789062 L 13.882812 10.789062 Z M 21.417969 10.445312 C 21.417969 10.925781 21.78125 11.195312 22.507812 11.25 C 22.578125 11.253906 22.640625 11.261719 22.710938 11.261719 L 24.550781 11.261719 L 24.550781 10.789062 L 22.695312 10.789062 C 22.285156 10.789062 22.128906 10.6875 22.128906 10.4375 L 22.128906 8.003906 L 21.417969 8.003906 Z M 17.46875 10.464844 L 17.46875 8.789062 C 17.46875 8.363281 17.769531 8.101562 18.359375 8.023438 C 18.425781 8.015625 18.488281 8.011719 18.546875 8.011719 L 19.890625 8.011719 C 19.960938 8.011719 20.019531 8.015625 20.089844 8.023438 C 20.679688 8.101562 20.976562 8.363281 20.976562 8.789062 L 20.976562 10.464844 C 20.976562 10.8125 20.851562 10.996094 20.558594 11.121094 L 21.25 11.746094 L 20.433594 11.746094 L 19.871094 11.238281 L 19.304688 11.273438 L 18.546875 11.273438 C 18.410156 11.269531 18.269531 11.253906 18.136719 11.21875 C 17.6875 11.09375 17.46875 10.855469 17.46875 10.464844 Z M 18.230469 10.429688 C 18.230469 10.449219 18.242188 10.472656 18.246094 10.5 C 18.285156 10.691406 18.46875 10.800781 18.75 10.800781 L 19.386719 10.800781 L 18.800781 10.269531 L 19.617188 10.269531 L 20.132812 10.738281 C 20.230469 10.683594 20.289062 10.605469 20.3125 10.507812 C 20.316406 10.488281 20.316406 10.460938 20.316406 10.4375 L 20.316406 8.832031 C 20.316406 8.8125 20.316406 8.789062 20.3125 8.769531 C 20.273438 8.585938 20.089844 8.480469 19.8125 8.480469 L 18.75 8.480469 C 18.433594 8.480469 18.230469 8.617188 18.230469 8.832031 Z M 18.230469 10.429688 "/>
</g>
</svg>
