<?xml version="1.0" encoding="UTF-8"?>
<svg xmlns="http://www.w3.org/2000/svg" xmlns:xlink="http://www.w3.org/1999/xlink" width="px" height="px" viewBox="0 0 60 30" version="1.1">
<g id="surface1">
<path style=" stroke:none;fill-rule:nonzero;fill:rgb(46.27451%,81.568627%,29.411765%);fill-opacity:1;" d="M 12.699219 24.148438 C 12.949219 24.300781 13.300781 24.300781 13.601562 24.148438 L 20.898438 19.949219 C 21.148438 19.800781 21.351562 19.5 21.351562 19.199219 L 21.351562 10.800781 C 21.351562 10.5 21.199219 10.199219 20.898438 10.050781 L 13.601562 5.851562 C 13.351562 5.699219 13 5.699219 12.699219 5.851562 L 5.398438 10.050781 C 5.148438 10.199219 4.949219 10.5 4.949219 10.800781 L 4.949219 19.199219 C 4.949219 19.5 5.101562 19.800781 5.398438 19.949219 L 12.699219 24.148438 "/>
<path style=" stroke:none;fill-rule:nonzero;fill:rgb(30.980392%,30.196078%,24.705882%);fill-opacity:1;" d="M 17.851562 13 L 17.550781 12.800781 C 18.050781 12.050781 18.351562 10.949219 17.949219 9.300781 C 17.949219 9.300781 17.101562 11.648438 15.398438 11.601562 L 13.398438 10.449219 C 13.351562 10.398438 13.25 10.398438 13.148438 10.398438 L 13.101562 10.398438 C 13 10.398438 12.949219 10.449219 12.851562 10.449219 L 10.851562 11.601562 C 9.148438 11.699219 8.300781 9.300781 8.300781 9.300781 C 7.949219 10.949219 8.199219 12.050781 8.699219 12.800781 L 8.449219 13 C 8.300781 13.101562 8.199219 13.25 8.199219 13.449219 L 8.199219 20.300781 C 8.199219 20.398438 8.25 20.5 8.351562 20.550781 C 8.449219 20.601562 8.550781 20.601562 8.601562 20.550781 L 11.25 19.050781 C 11.398438 18.949219 11.5 18.800781 11.5 18.601562 L 11.5 15.398438 C 11.5 15.199219 11.601562 15.050781 11.75 14.949219 L 12.851562 14.300781 C 12.949219 14.25 13 14.25 13.101562 14.25 C 13.199219 14.25 13.300781 14.25 13.351562 14.300781 L 14.449219 14.949219 C 14.601562 15.050781 14.699219 15.199219 14.699219 15.398438 L 14.699219 18.601562 C 14.699219 18.800781 14.800781 18.949219 14.949219 19.050781 L 17.601562 20.550781 C 17.699219 20.601562 17.800781 20.601562 17.851562 20.550781 C 17.949219 20.5 18 20.398438 18 20.300781 L 18 13.449219 C 18.101562 13.25 18 13.101562 17.851562 13 Z M 17.851562 13 "/>
<path style=" stroke:none;fill-rule:nonzero;fill:rgb(30.980392%,30.196078%,24.705882%);fill-opacity:1;" d="M 25.800781 14.101562 L 25.851562 14.550781 C 26.101562 14.199219 26.5 14 27 14 C 27.851562 14 28.25 14.5 28.25 15.449219 L 28.25 18.101562 L 27.351562 18.101562 L 27.351562 15.5 C 27.351562 15.25 27.300781 15.050781 27.199219 14.949219 C 27.101562 14.851562 26.898438 14.75 26.648438 14.75 C 26.300781 14.75 26 14.898438 25.851562 15.25 L 25.851562 18.101562 L 24.949219 18.101562 L 24.949219 14.101562 Z M 25.800781 14.101562 "/>
<path style=" stroke:none;fill-rule:nonzero;fill:rgb(30.980392%,30.196078%,24.705882%);fill-opacity:1;" d="M 29 16.050781 C 29 15.648438 29.101562 15.300781 29.25 15 C 29.398438 14.699219 29.601562 14.449219 29.898438 14.300781 C 30.199219 14.148438 30.5 14.050781 30.851562 14.050781 C 31.398438 14.050781 31.800781 14.199219 32.148438 14.550781 C 32.5 14.898438 32.648438 15.351562 32.699219 15.949219 L 32.699219 16.148438 C 32.699219 16.550781 32.601562 16.898438 32.449219 17.199219 C 32.300781 17.5 32.101562 17.75 31.800781 17.898438 C 31.5 18.050781 31.199219 18.148438 30.851562 18.148438 C 30.300781 18.148438 29.851562 17.949219 29.5 17.601562 C 29.148438 17.25 29 16.699219 29 16.050781 Z M 29.898438 16.101562 C 29.898438 16.5 30 16.851562 30.148438 17.050781 C 30.300781 17.300781 30.550781 17.398438 30.851562 17.398438 C 31.148438 17.398438 31.398438 17.300781 31.550781 17.050781 C 31.699219 16.800781 31.800781 16.449219 31.800781 16 C 31.800781 15.601562 31.699219 15.300781 31.550781 15.050781 C 31.398438 14.800781 31.148438 14.699219 30.851562 14.699219 C 30.550781 14.699219 30.351562 14.800781 30.148438 15.050781 C 29.949219 15.300781 29.898438 15.648438 29.898438 16.101562 Z M 29.898438 16.101562 "/>
<path style=" stroke:none;fill-rule:nonzero;fill:rgb(30.980392%,30.196078%,24.705882%);fill-opacity:1;" d="M 33.300781 16.050781 C 33.300781 15.449219 33.449219 14.949219 33.75 14.550781 C 34.050781 14.148438 34.398438 14 34.898438 14 C 35.300781 14 35.648438 14.148438 35.898438 14.449219 L 35.898438 12.398438 L 36.800781 12.398438 L 36.800781 18.050781 L 36 18.050781 L 35.949219 17.648438 C 35.699219 17.949219 35.351562 18.148438 34.898438 18.148438 C 34.449219 18.148438 34.050781 17.949219 33.75 17.601562 C 33.449219 17.199219 33.300781 16.699219 33.300781 16.050781 Z M 34.199219 16.101562 C 34.199219 16.5 34.300781 16.800781 34.449219 17.050781 C 34.601562 17.300781 34.851562 17.398438 35.101562 17.398438 C 35.449219 17.398438 35.75 17.25 35.898438 16.898438 L 35.898438 15.199219 C 35.75 14.898438 35.449219 14.699219 35.101562 14.699219 C 34.800781 14.699219 34.601562 14.800781 34.449219 15.050781 C 34.25 15.300781 34.199219 15.648438 34.199219 16.101562 Z M 34.199219 16.101562 "/>
<path style=" stroke:none;fill-rule:nonzero;fill:rgb(30.980392%,30.196078%,24.705882%);fill-opacity:1;" d="M 39.449219 18.148438 C 38.898438 18.148438 38.398438 17.949219 38.050781 17.601562 C 37.699219 17.25 37.5 16.75 37.5 16.148438 L 37.5 16.050781 C 37.5 15.648438 37.601562 15.300781 37.75 15 C 37.898438 14.699219 38.101562 14.449219 38.398438 14.25 C 38.699219 14.101562 39 14 39.351562 14 C 39.898438 14 40.300781 14.148438 40.601562 14.5 C 40.898438 14.851562 41.050781 15.351562 41.050781 15.949219 L 41.050781 16.300781 L 38.449219 16.300781 C 38.5 16.648438 38.601562 16.898438 38.800781 17.101562 C 39 17.300781 39.25 17.398438 39.550781 17.398438 C 39.949219 17.398438 40.300781 17.25 40.550781 16.898438 L 41.050781 17.351562 C 40.898438 17.601562 40.699219 17.75 40.398438 17.898438 C 40.101562 18.101562 39.800781 18.148438 39.449219 18.148438 Z M 39.351562 14.75 C 39.101562 14.75 38.898438 14.851562 38.75 15 C 38.601562 15.148438 38.5 15.398438 38.449219 15.699219 L 40.148438 15.699219 L 40.148438 15.648438 C 40.148438 15.351562 40.050781 15.101562 39.898438 14.949219 C 39.800781 14.800781 39.601562 14.75 39.351562 14.75 Z M 39.351562 14.75 "/>
<path style=" stroke:none;fill-rule:nonzero;fill:rgb(30.980392%,30.196078%,24.705882%);fill-opacity:1;" d="M 42.601562 14.101562 L 42.648438 14.5 C 42.949219 14.148438 43.300781 14 43.800781 14 C 44.351562 14 44.699219 14.199219 44.898438 14.601562 C 45.199219 14.199219 45.601562 14 46.101562 14 C 46.550781 14 46.851562 14.101562 47.101562 14.351562 C 47.351562 14.601562 47.398438 14.949219 47.449219 15.449219 L 47.449219 18.050781 L 46.5 18.050781 L 46.5 15.5 C 46.5 15.25 46.449219 15.050781 46.351562 14.949219 C 46.25 14.851562 46.050781 14.75 45.800781 14.75 C 45.601562 14.75 45.449219 14.800781 45.300781 14.898438 C 45.148438 15 45.101562 15.148438 45.050781 15.351562 L 45.050781 18.101562 L 44.148438 18.101562 L 44.148438 15.5 C 44.148438 15.050781 43.898438 14.800781 43.449219 14.800781 C 43.101562 14.800781 42.851562 14.949219 42.699219 15.25 L 42.699219 18.148438 L 41.800781 18.148438 L 41.800781 14.148438 L 42.601562 14.148438 Z M 42.601562 14.101562 "/>
<path style=" stroke:none;fill-rule:nonzero;fill:rgb(30.980392%,30.196078%,24.705882%);fill-opacity:1;" d="M 48.148438 16.050781 C 48.148438 15.648438 48.25 15.300781 48.398438 15 C 48.550781 14.699219 48.75 14.449219 49.050781 14.300781 C 49.351562 14.148438 49.648438 14.050781 50 14.050781 C 50.550781 14.050781 50.949219 14.199219 51.300781 14.550781 C 51.648438 14.898438 51.800781 15.351562 51.851562 15.949219 L 51.851562 16.148438 C 51.851562 16.550781 51.75 16.898438 51.601562 17.199219 C 51.449219 17.5 51.25 17.75 50.949219 17.898438 C 50.648438 18.050781 50.351562 18.148438 50 18.148438 C 49.449219 18.148438 49 17.949219 48.648438 17.601562 C 48.300781 17.25 48.148438 16.699219 48.148438 16.050781 Z M 49.050781 16.101562 C 49.050781 16.5 49.148438 16.851562 49.300781 17.050781 C 49.449219 17.300781 49.699219 17.398438 50 17.398438 C 50.300781 17.398438 50.550781 17.300781 50.699219 17.050781 C 50.851562 16.800781 50.949219 16.449219 50.949219 16 C 50.949219 15.601562 50.851562 15.300781 50.699219 15.050781 C 50.550781 14.800781 50.300781 14.699219 50 14.699219 C 49.699219 14.699219 49.5 14.800781 49.300781 15.050781 C 49.148438 15.300781 49.050781 15.648438 49.050781 16.101562 Z M 49.050781 16.101562 "/>
<path style=" stroke:none;fill-rule:nonzero;fill:rgb(30.980392%,30.196078%,24.705882%);fill-opacity:1;" d="M 53.449219 14.101562 L 53.5 14.550781 C 53.800781 14.199219 54.199219 14 54.648438 14 C 55.5 14 55.898438 14.5 55.898438 15.449219 L 55.898438 18.101562 L 55 18.101562 L 55 15.5 C 55 15.25 54.949219 15.050781 54.851562 14.949219 C 54.75 14.851562 54.550781 14.75 54.300781 14.75 C 53.949219 14.75 53.648438 14.898438 53.5 15.25 L 53.5 18.101562 L 52.601562 18.101562 L 52.601562 14.101562 Z M 53.449219 14.101562 "/>
</g>
</svg>
