<?xml version="1.0" encoding="UTF-8"?>
<svg xmlns="http://www.w3.org/2000/svg" xmlns:xlink="http://www.w3.org/1999/xlink" width="161px" height="60px" viewBox="0 0 40 15" version="1.1">
<g id="surface1">
<path style=" stroke:none;fill-rule:nonzero;fill:rgb(51.372549%,80.392157%,16.078431%);fill-opacity:1;" d="M 34.859375 6.046875 C 34.773438 6.046875 34.6875 6.066406 34.617188 6.109375 L 32.28125 7.464844 C 32.132812 7.550781 32.039062 7.71875 32.039062 7.894531 L 32.039062 10.601562 C 32.039062 10.777344 32.132812 10.941406 32.28125 11.027344 L 32.890625 11.382812 C 33.1875 11.527344 33.296875 11.527344 33.429688 11.527344 C 33.871094 11.527344 34.121094 11.257812 34.121094 10.792969 L 34.121094 8.121094 C 34.121094 8.085938 34.085938 8.058594 34.050781 8.058594 L 33.757812 8.058594 C 33.722656 8.058594 33.6875 8.085938 33.6875 8.121094 L 33.6875 10.792969 C 33.6875 11 33.476562 11.207031 33.128906 11.035156 L 32.496094 10.660156 C 32.472656 10.648438 32.457031 10.625 32.457031 10.601562 L 32.457031 7.894531 C 32.457031 7.867188 32.472656 7.839844 32.496094 7.828125 L 34.824219 6.476562 C 34.847656 6.464844 34.871094 6.464844 34.894531 6.476562 L 37.222656 7.828125 C 37.242188 7.84375 37.261719 7.867188 37.261719 7.894531 L 37.261719 10.601562 C 37.261719 10.625 37.25 10.652344 37.226562 10.664062 L 34.894531 12.015625 C 34.871094 12.027344 34.84375 12.027344 34.824219 12.015625 L 34.226562 11.65625 C 34.207031 11.648438 34.183594 11.648438 34.164062 11.65625 C 34 11.75 33.96875 11.761719 33.8125 11.816406 C 33.777344 11.832031 33.71875 11.851562 33.832031 11.917969 L 34.617188 12.378906 C 34.691406 12.425781 34.773438 12.445312 34.859375 12.445312 C 34.945312 12.445312 35.027344 12.425781 35.101562 12.378906 L 37.433594 11.03125 C 37.585938 10.941406 37.679688 10.777344 37.679688 10.601562 L 37.679688 7.894531 C 37.679688 7.71875 37.585938 7.554688 37.433594 7.464844 L 35.101562 6.109375 C 35.027344 6.066406 34.945312 6.050781 34.859375 6.050781 Z M 35.480469 7.984375 C 34.816406 7.984375 34.421875 8.265625 34.421875 8.742188 C 34.421875 9.253906 34.816406 9.394531 35.453125 9.457031 C 36.214844 9.535156 36.273438 9.644531 36.273438 9.796875 C 36.273438 10.058594 36.066406 10.171875 35.578125 10.171875 C 34.960938 10.171875 34.824219 10.015625 34.777344 9.707031 C 34.773438 9.671875 34.75 9.648438 34.714844 9.648438 L 34.410156 9.648438 C 34.375 9.648438 34.34375 9.679688 34.34375 9.714844 C 34.34375 10.113281 34.554688 10.578125 35.574219 10.578125 C 36.3125 10.578125 36.738281 10.289062 36.738281 9.777344 C 36.738281 9.269531 36.394531 9.132812 35.679688 9.039062 C 34.957031 8.941406 34.886719 8.894531 34.886719 8.726562 C 34.886719 8.582031 34.945312 8.394531 35.480469 8.394531 C 35.960938 8.394531 36.136719 8.5 36.210938 8.824219 C 36.214844 8.855469 36.242188 8.878906 36.273438 8.878906 L 36.578125 8.878906 C 36.597656 8.878906 36.613281 8.867188 36.625 8.855469 C 36.640625 8.839844 36.648438 8.824219 36.648438 8.804688 C 36.601562 8.246094 36.230469 7.980469 35.484375 7.980469 Z M 35.480469 7.984375 "/>
<path style=" stroke:none;fill-rule:nonzero;fill:rgb(25.098039%,25.490196%,21.568627%);fill-opacity:1;" d="M 21.140625 2.5 C 21.113281 2.5 21.089844 2.507812 21.066406 2.519531 C 21.019531 2.546875 20.992188 2.597656 20.992188 2.648438 L 20.992188 6.464844 C 20.992188 6.5 20.976562 6.535156 20.941406 6.554688 C 20.910156 6.570312 20.871094 6.570312 20.839844 6.554688 L 20.21875 6.195312 C 20.128906 6.140625 20.015625 6.140625 19.921875 6.195312 L 17.449219 7.628906 C 17.359375 7.683594 17.300781 7.785156 17.300781 7.894531 L 17.300781 10.765625 C 17.300781 10.871094 17.359375 10.972656 17.449219 11.023438 L 19.921875 12.460938 C 20.015625 12.511719 20.128906 12.511719 20.21875 12.460938 L 22.691406 11.023438 C 22.785156 10.972656 22.839844 10.871094 22.839844 10.765625 L 22.839844 3.605469 C 22.839844 3.496094 22.78125 3.394531 22.6875 3.34375 L 21.214844 2.515625 C 21.191406 2.503906 21.167969 2.5 21.140625 2.5 Z M 5.238281 6.085938 C 5.191406 6.085938 5.148438 6.09375 5.105469 6.117188 L 2.632812 7.554688 C 2.539062 7.609375 2.484375 7.707031 2.484375 7.8125 L 2.488281 11.667969 C 2.488281 11.722656 2.515625 11.769531 2.5625 11.796875 C 2.609375 11.824219 2.667969 11.824219 2.710938 11.796875 L 4.179688 10.949219 C 4.273438 10.894531 4.332031 10.796875 4.332031 10.691406 L 4.332031 8.890625 C 4.332031 8.785156 4.386719 8.683594 4.480469 8.632812 L 5.105469 8.269531 C 5.148438 8.242188 5.203125 8.226562 5.253906 8.226562 C 5.304688 8.226562 5.355469 8.242188 5.402344 8.269531 L 6.027344 8.632812 C 6.117188 8.683594 6.175781 8.78125 6.175781 8.890625 L 6.175781 10.691406 C 6.175781 10.796875 6.238281 10.894531 6.328125 10.949219 L 7.792969 11.796875 C 7.839844 11.824219 7.898438 11.824219 7.945312 11.796875 C 7.988281 11.769531 8.019531 11.71875 8.019531 11.667969 L 8.023438 7.8125 C 8.023438 7.707031 7.964844 7.609375 7.875 7.554688 L 5.402344 6.117188 C 5.359375 6.09375 5.316406 6.085938 5.269531 6.085938 Z M 27.453125 6.117188 C 27.398438 6.117188 27.347656 6.132812 27.304688 6.160156 L 24.832031 7.59375 C 24.738281 7.648438 24.683594 7.746094 24.683594 7.855469 L 24.683594 10.726562 C 24.683594 10.832031 24.742188 10.929688 24.835938 10.984375 L 27.289062 12.390625 C 27.378906 12.441406 27.488281 12.445312 27.582031 12.394531 L 29.066406 11.5625 C 29.113281 11.535156 29.144531 11.488281 29.144531 11.433594 C 29.144531 11.378906 29.117188 11.332031 29.070312 11.304688 L 26.585938 9.867188 C 26.539062 9.839844 26.503906 9.789062 26.503906 9.734375 L 26.503906 8.835938 C 26.503906 8.78125 26.539062 8.734375 26.585938 8.707031 L 27.359375 8.257812 C 27.402344 8.230469 27.460938 8.230469 27.507812 8.257812 L 28.28125 8.707031 C 28.324219 8.734375 28.355469 8.78125 28.355469 8.835938 L 28.355469 9.542969 C 28.355469 9.597656 28.382812 9.644531 28.429688 9.671875 C 28.472656 9.699219 28.53125 9.699219 28.578125 9.671875 L 30.058594 8.804688 C 30.148438 8.753906 30.207031 8.652344 30.207031 8.546875 L 30.207031 7.855469 C 30.207031 7.746094 30.148438 7.648438 30.058594 7.59375 L 27.601562 6.160156 C 27.554688 6.132812 27.503906 6.117188 27.453125 6.121094 Z M 20.0625 8.261719 C 20.074219 8.261719 20.089844 8.265625 20.101562 8.273438 L 20.949219 8.765625 C 20.96875 8.78125 20.988281 8.804688 20.988281 8.832031 L 20.988281 9.816406 C 20.988281 9.84375 20.96875 9.871094 20.949219 9.882812 L 20.101562 10.375 C 20.078125 10.390625 20.050781 10.390625 20.027344 10.375 L 19.179688 9.882812 C 19.15625 9.871094 19.140625 9.84375 19.140625 9.816406 L 19.140625 8.832031 C 19.140625 8.804688 19.15625 8.78125 19.179688 8.765625 L 20.027344 8.273438 C 20.039062 8.265625 20.046875 8.261719 20.0625 8.261719 Z M 20.0625 8.261719 "/>
<path style=" stroke:none;fill-rule:nonzero;fill:rgb(51.372549%,80.392157%,16.078431%);fill-opacity:1;" d="M 12.664062 6.105469 C 12.613281 6.105469 12.5625 6.117188 12.515625 6.144531 L 10.042969 7.574219 C 9.953125 7.628906 9.894531 7.730469 9.894531 7.839844 L 9.894531 10.710938 C 9.894531 10.816406 9.953125 10.914062 10.042969 10.96875 L 12.515625 12.40625 C 12.609375 12.457031 12.722656 12.457031 12.8125 12.40625 L 15.285156 10.96875 C 15.378906 10.914062 15.433594 10.816406 15.433594 10.710938 L 15.433594 7.839844 C 15.433594 7.730469 15.378906 7.628906 15.285156 7.574219 L 12.8125 6.144531 C 12.769531 6.117188 12.714844 6.105469 12.664062 6.105469 Z M 27.445312 8.667969 C 27.4375 8.667969 27.425781 8.667969 27.417969 8.671875 L 26.941406 8.949219 C 26.925781 8.960938 26.914062 8.980469 26.914062 9 L 26.914062 9.546875 C 26.914062 9.570312 26.925781 9.589844 26.941406 9.597656 L 27.417969 9.871094 C 27.433594 9.882812 27.457031 9.882812 27.472656 9.871094 L 27.949219 9.597656 C 27.964844 9.589844 27.976562 9.570312 27.976562 9.546875 L 27.976562 9 C 27.976562 8.980469 27.964844 8.960938 27.949219 8.949219 L 27.472656 8.671875 C 27.464844 8.664062 27.457031 8.667969 27.445312 8.667969 Z M 27.445312 8.667969 "/>
</g>
</svg>
