<?xml version="1.0" encoding="UTF-8"?>
<svg xmlns="http://www.w3.org/2000/svg" xmlns:xlink="http://www.w3.org/1999/xlink" width="120px" height="60px" viewBox="0 0 120 60" version="1.1">
<g id="surface1">
<path style=" stroke:none;fill-rule:nonzero;fill:rgb(18.431373%,25.098039%,41.568627%);fill-opacity:1;" d="M 31.554688 23.515625 L 31.554688 36.417969 L 20.589844 42.855469 L 20.488281 42.945312 L 20.488281 47.8125 L 20.589844 47.90625 L 36.023438 38.988281 L 36.023438 21.011719 L 35.878906 21.011719 L 31.527344 23.441406 L 31.527344 23.542969 "/>
<path style=" stroke:none;fill-rule:nonzero;fill:rgb(13.72549%,47.45098%,74.117647%);fill-opacity:1;" d="M 9.589844 36.519531 L 20.609375 42.898438 L 20.609375 47.902344 L 5.046875 38.953125 L 5.046875 21.046875 L 5.203125 21.046875 L 9.546875 23.574219 L 9.589844 23.71875 L 9.589844 36.574219 "/>
<path style=" stroke:none;fill-rule:nonzero;fill:rgb(1.176471%,68.627451%,93.72549%);fill-opacity:1;" d="M 9.589844 23.691406 L 5 21.046875 L 20.554688 12.097656 L 36.027344 21.011719 L 31.554688 23.519531 L 20.535156 17.25 L 9.574219 23.675781 "/>
<path style=" stroke:none;fill-rule:nonzero;fill:rgb(18.431373%,25.098039%,41.568627%);fill-opacity:1;" d="M 20.398438 35.039062 L 20.277344 34.921875 L 20.277344 30.078125 L 20.398438 30.015625 L 20.398438 29.894531 L 24.546875 27.472656 L 24.679688 27.472656 L 24.679688 32.46875 L 20.371094 35.019531 "/>
<path style=" stroke:none;fill-rule:nonzero;fill:rgb(13.72549%,47.45098%,74.117647%);fill-opacity:1;" d="M 16.019531 32.652344 L 16.019531 27.464844 L 16.136719 27.464844 L 20.363281 29.925781 L 20.363281 35.050781 L 15.980469 32.652344 "/>
<path style=" stroke:none;fill-rule:nonzero;fill:rgb(1.176471%,68.627451%,93.72549%);fill-opacity:1;" d="M 20.324219 24.921875 L 16.019531 27.476562 L 20.398438 30 L 24.703125 27.484375 L 20.324219 24.894531 "/>
<path style=" stroke:none;fill-rule:nonzero;fill:rgb(18.431373%,25.098039%,41.568627%);fill-opacity:1;" d="M 15.035156 38.210938 L 14.914062 38.089844 L 14.914062 33.238281 L 15.035156 33.175781 L 15.035156 33.054688 L 19.1875 30.632812 L 19.316406 30.632812 L 19.316406 35.628906 L 15.011719 38.179688 "/>
<path style=" stroke:none;fill-rule:nonzero;fill:rgb(13.72549%,47.45098%,74.117647%);fill-opacity:1;" d="M 10.65625 35.8125 L 10.65625 30.625 L 10.777344 30.625 L 15 33.085938 L 15 38.210938 L 10.65625 35.8125 "/>
<path style=" stroke:none;fill-rule:nonzero;fill:rgb(1.176471%,68.627451%,93.72549%);fill-opacity:1;" d="M 14.972656 28.078125 L 10.65625 30.621094 L 15.035156 33.175781 L 19.34375 30.660156 L 14.960938 28.070312 "/>
<path style=" stroke:none;fill-rule:nonzero;fill:rgb(18.431373%,25.098039%,41.568627%);fill-opacity:1;" d="M 26.144531 38.328125 L 26.027344 38.207031 L 26.027344 33.359375 L 26.144531 33.296875 L 26.144531 33.175781 L 30.296875 30.753906 L 30.425781 30.753906 L 30.425781 35.746094 L 26.121094 38.300781 "/>
<path style=" stroke:none;fill-rule:nonzero;fill:rgb(13.72549%,47.45098%,74.117647%);fill-opacity:1;" d="M 21.765625 35.933594 L 21.765625 30.742188 L 21.902344 30.742188 L 26.128906 33.203125 L 26.128906 38.328125 L 21.746094 35.929688 "/>
<path style=" stroke:none;fill-rule:nonzero;fill:rgb(1.176471%,68.627451%,93.72549%);fill-opacity:1;" d="M 26.074219 28.164062 L 21.765625 30.71875 L 26.148438 33.269531 L 30.453125 30.753906 L 26.074219 28.164062 "/>
<path style=" stroke:none;fill-rule:nonzero;fill:rgb(18.431373%,25.098039%,41.568627%);fill-opacity:1;" d="M 20.785156 41.488281 L 20.664062 41.367188 L 20.664062 36.519531 L 20.785156 36.457031 L 20.785156 36.335938 L 24.933594 33.910156 L 25.0625 33.910156 L 25.0625 38.90625 L 20.757812 41.460938 "/>
<path style=" stroke:none;fill-rule:nonzero;fill:rgb(13.72549%,47.45098%,74.117647%);fill-opacity:1;" d="M 16.394531 39.101562 L 16.394531 33.921875 L 16.515625 33.921875 L 20.738281 36.378906 L 20.738281 41.503906 L 16.394531 39.101562 "/>
<path style=" stroke:none;fill-rule:nonzero;fill:rgb(1.176471%,68.627451%,93.72549%);fill-opacity:1;" d="M 20.699219 31.359375 L 16.382812 33.914062 L 20.773438 36.429688 L 25.078125 33.914062 L 20.699219 31.359375 "/>
<path style=" stroke:none;fill-rule:nonzero;fill:rgb(18.431373%,25.098039%,41.568627%);fill-opacity:1;" d="M 20.398438 28.164062 L 20.277344 28.042969 L 20.277344 23.214844 L 20.398438 23.148438 L 20.398438 23.03125 L 24.546875 20.605469 L 24.679688 20.605469 L 24.679688 25.601562 L 20.398438 28.164062 "/>
<path style=" stroke:none;fill-rule:nonzero;fill:rgb(13.72549%,47.45098%,74.117647%);fill-opacity:1;" d="M 16.019531 25.785156 L 16.019531 20.597656 L 16.136719 20.597656 L 20.363281 23.058594 L 20.363281 28.160156 L 15.980469 25.765625 "/>
<path style=" stroke:none;fill-rule:nonzero;fill:rgb(1.176471%,68.627451%,93.72549%);fill-opacity:1;" d="M 20.324219 18.0625 L 16.019531 20.617188 L 20.398438 23.167969 L 24.703125 20.652344 L 20.324219 18.0625 "/>
<path style=" stroke:none;fill-rule:nonzero;fill:rgb(18.431373%,25.098039%,41.568627%);fill-opacity:1;" d="M 15.035156 31.328125 L 14.914062 31.210938 L 14.914062 26.324219 L 15.035156 26.261719 L 15.035156 26.140625 L 19.1875 23.71875 L 19.316406 23.71875 L 19.316406 28.710938 L 15.011719 31.265625 "/>
<path style=" stroke:none;fill-rule:nonzero;fill:rgb(13.72549%,47.45098%,74.117647%);fill-opacity:1;" d="M 10.65625 28.945312 L 10.65625 23.757812 L 10.777344 23.757812 L 15 26.21875 L 15 31.339844 L 10.65625 28.945312 "/>
<path style=" stroke:none;fill-rule:nonzero;fill:rgb(1.176471%,68.627451%,93.72549%);fill-opacity:1;" d="M 14.972656 21.214844 L 10.65625 23.757812 L 15.035156 26.324219 L 19.34375 23.808594 L 14.960938 21.21875 "/>
<path style=" stroke:none;fill-rule:nonzero;fill:rgb(18.431373%,25.098039%,41.568627%);fill-opacity:1;" d="M 26.144531 31.449219 L 26.027344 31.328125 L 26.027344 26.488281 L 26.144531 26.425781 L 26.144531 26.304688 L 30.296875 23.882812 L 30.425781 23.882812 L 30.425781 28.878906 L 26.121094 31.429688 "/>
<path style=" stroke:none;fill-rule:nonzero;fill:rgb(13.72549%,47.45098%,74.117647%);fill-opacity:1;" d="M 21.765625 29.082031 L 21.765625 23.875 L 21.902344 23.875 L 26.109375 26.328125 L 26.109375 31.453125 L 21.765625 29.082031 "/>
<path style=" stroke:none;fill-rule:nonzero;fill:rgb(1.176471%,68.627451%,93.72549%);fill-opacity:1;" d="M 26.074219 21.332031 L 21.765625 23.886719 L 26.148438 26.4375 L 30.453125 23.921875 L 26.074219 21.332031 "/>
<path style=" stroke:none;fill-rule:nonzero;fill:rgb(18.431373%,25.098039%,41.568627%);fill-opacity:1;" d="M 20.785156 34.589844 L 20.664062 34.46875 L 20.664062 29.648438 L 20.785156 29.585938 L 20.785156 29.464844 L 24.933594 27.042969 L 25.0625 27.042969 L 25.0625 32.035156 L 20.785156 34.589844 "/>
<path style=" stroke:none;fill-rule:nonzero;fill:rgb(13.72549%,47.45098%,74.117647%);fill-opacity:1;" d="M 16.394531 32.222656 L 16.394531 27.035156 L 16.515625 27.035156 L 20.738281 29.492188 L 20.738281 34.589844 L 16.394531 32.21875 "/>
<path style=" stroke:none;fill-rule:nonzero;fill:rgb(1.176471%,68.627451%,93.72549%);fill-opacity:1;" d="M 20.699219 24.488281 L 16.382812 27.03125 L 20.765625 29.585938 L 25.070312 27.070312 L 20.699219 24.488281 "/>
<path style=" stroke:none;fill-rule:nonzero;fill:rgb(18.431373%,25.098039%,41.568627%);fill-opacity:1;" d="M 43.777344 23.171875 C 41.847656 23.171875 40.882812 23.894531 40.882812 25.347656 C 40.796875 25.980469 41.050781 26.613281 41.542969 27.015625 C 42.386719 27.464844 43.300781 27.777344 44.242188 27.933594 C 45.28125 28.089844 46.265625 28.484375 47.128906 29.082031 C 47.746094 29.710938 48.054688 30.582031 47.972656 31.460938 C 47.972656 34.195312 46.550781 35.5625 43.710938 35.5625 C 42.53125 35.542969 41.351562 35.429688 40.1875 35.234375 L 39.488281 35.140625 L 39.644531 33.910156 C 40.96875 34.109375 42.300781 34.226562 43.636719 34.261719 C 45.542969 34.261719 46.492188 33.367188 46.492188 31.582031 C 46.554688 30.984375 46.324219 30.394531 45.871094 30.003906 C 45.152344 29.578125 44.355469 29.308594 43.53125 29.203125 C 42.382812 29.027344 41.289062 28.605469 40.324219 27.960938 C 39.621094 27.308594 39.265625 26.363281 39.351562 25.410156 C 39.351562 23.007812 40.785156 21.808594 43.648438 21.808594 C 44.78125 21.824219 45.910156 21.910156 47.027344 22.09375 L 47.679688 22.195312 L 47.617188 23.480469 C 46.34375 23.304688 45.0625 23.195312 43.777344 23.15625 Z M 56.851562 34.214844 L 57.410156 34.160156 L 57.410156 35.300781 C 56.164062 35.488281 54.90625 35.59375 53.644531 35.613281 C 52.523438 35.726562 51.417969 35.273438 50.699219 34.410156 C 50.03125 33.277344 49.726562 31.972656 49.824219 30.664062 C 49.824219 27.285156 51.167969 25.59375 53.855469 25.59375 C 54.945312 25.496094 56.023438 25.890625 56.792969 26.667969 C 57.519531 27.65625 57.859375 28.875 57.757812 30.09375 L 57.710938 31.1875 L 51.328125 31.1875 C 51.269531 32.019531 51.472656 32.847656 51.90625 33.558594 C 52.417969 34.121094 53.164062 34.40625 53.917969 34.328125 C 54.878906 34.328125 55.855469 34.292969 56.847656 34.226562 Z M 56.328125 30 C 56.40625 29.125 56.207031 28.25 55.757812 27.492188 C 55.296875 26.972656 54.613281 26.699219 53.921875 26.757812 C 53.195312 26.703125 52.484375 26.988281 51.992188 27.527344 C 51.484375 28.25 51.238281 29.121094 51.285156 30 Z M 63.222656 35.601562 C 62.175781 35.691406 61.144531 35.265625 60.46875 34.460938 C 59.808594 33.289062 59.515625 31.945312 59.632812 30.605469 C 59.503906 29.234375 59.859375 27.863281 60.632812 26.730469 C 61.296875 25.957031 62.480469 25.574219 64.175781 25.574219 L 67.398438 25.765625 L 67.398438 39.6875 L 65.976562 39.6875 L 65.976562 34.964844 C 65.117188 35.382812 64.175781 35.597656 63.222656 35.601562 Z M 64.140625 26.820312 C 63.222656 26.707031 62.300781 27.050781 61.679688 27.738281 C 61.183594 28.613281 60.960938 29.621094 61.039062 30.621094 C 60.964844 31.597656 61.148438 32.578125 61.570312 33.460938 C 61.964844 34.050781 62.648438 34.378906 63.351562 34.3125 C 64.113281 34.3125 64.867188 34.167969 65.574219 33.890625 L 65.925781 33.753906 L 65.925781 26.941406 C 65.148438 26.875 64.554688 26.839844 64.144531 26.839844 Z M 76.1875 25.765625 L 77.636719 25.765625 L 77.636719 35.40625 L 76.1875 35.40625 L 76.1875 34.738281 C 75.332031 35.285156 74.339844 35.582031 73.324219 35.601562 C 72.011719 35.601562 71.140625 35.261719 70.707031 34.578125 C 70.175781 33.394531 69.957031 32.09375 70.0625 30.796875 L 70.0625 25.765625 L 71.484375 25.765625 L 71.484375 30.777344 C 71.417969 31.734375 71.542969 32.691406 71.851562 33.597656 C 72.097656 34.074219 72.652344 34.3125 73.515625 34.3125 C 73.953125 34.3125 74.390625 34.25 74.808594 34.128906 C 75.152344 34.039062 75.488281 33.917969 75.808594 33.769531 L 76.160156 33.597656 Z M 86.96875 34.214844 L 87.527344 34.160156 L 87.527344 35.300781 C 86.28125 35.488281 85.023438 35.59375 83.761719 35.613281 C 82.640625 35.726562 81.539062 35.273438 80.816406 34.410156 C 80.148438 33.277344 79.847656 31.972656 79.945312 30.664062 C 79.945312 27.285156 81.289062 25.59375 83.972656 25.59375 C 85.058594 25.511719 86.125 25.910156 86.875 26.6875 C 87.597656 27.675781 87.941406 28.890625 87.839844 30.113281 L 87.765625 31.214844 L 81.449219 31.214844 C 81.390625 32.046875 81.589844 32.875 82.027344 33.585938 C 82.535156 34.148438 83.285156 34.4375 84.039062 34.355469 C 85 34.335938 85.976562 34.292969 86.96875 34.21875 Z M 86.445312 30 C 86.523438 29.125 86.324219 28.25 85.875 27.492188 C 85.414062 26.972656 84.734375 26.699219 84.039062 26.757812 C 83.3125 26.703125 82.601562 26.988281 82.109375 27.527344 C 81.613281 28.25 81.371094 29.121094 81.429688 30 Z M 90.265625 35.40625 L 90.265625 21.5625 L 91.6875 21.5625 L 91.6875 35.40625 Z M 94.597656 23.574219 L 94.597656 21.898438 L 96.039062 21.898438 L 96.039062 23.5625 Z M 94.597656 35.390625 L 94.597656 25.765625 L 96.039062 25.765625 L 96.039062 35.40625 Z M 98.242188 27.0625 L 98.242188 25.765625 L 105.394531 25.765625 L 105.394531 27.0625 L 99.996094 34.121094 L 105.394531 34.121094 L 105.394531 35.417969 L 98.242188 35.417969 L 98.242188 34.113281 L 103.621094 27.0625 Z M 114.101562 34.214844 L 114.660156 34.160156 L 114.660156 35.300781 C 113.414062 35.488281 112.15625 35.59375 110.894531 35.613281 C 109.773438 35.726562 108.667969 35.273438 107.949219 34.410156 C 107.28125 33.277344 106.976562 31.972656 107.074219 30.664062 C 107.074219 27.285156 108.417969 25.59375 111.105469 25.59375 C 112.191406 25.511719 113.257812 25.910156 114.007812 26.6875 C 114.730469 27.675781 115.070312 28.890625 114.96875 30.113281 L 114.898438 31.214844 L 108.570312 31.214844 C 108.511719 32.046875 108.710938 32.875 109.148438 33.585938 C 109.65625 34.148438 110.40625 34.4375 111.160156 34.355469 C 112.121094 34.335938 113.097656 34.292969 114.089844 34.21875 Z M 113.578125 30 C 113.65625 29.125 113.457031 28.25 113.007812 27.492188 C 112.546875 26.972656 111.863281 26.699219 111.171875 26.757812 C 110.445312 26.703125 109.734375 26.988281 109.242188 27.527344 C 108.75 28.253906 108.519531 29.125 108.582031 30 Z M 113.578125 30 "/>
</g>
</svg>
